<svg xmlns="http://www.w3.org/2000/svg"
shape-rendering="geometricPrecision"
width="4000" height="4000" viewBox="0 0 1024 1024"><rect width="100%" height="100%" fill="#FEFEFD" />
  <metadata>null</metadata>

<path d="
M 141.45 432.632
C 142.144 432.661 141.796 432.652 142.492 432.657
C 147.278 433.127 152.185 432.785 156.986 432.689
C 158.852 432.651 161.545 433.039 163.259 432.207
C 166.053 429.177 167.953 424.425 169.704 420.729
C 172.095 415.922 174.647 411.198 177.057 406.4
C 177.957 404.608 179.272 402.868 179.94 400.987
C 180.082 400.633 180.209 400.315 180.301 399.942
C 182.853 396.862 183.08 391.784 186.674 389.461
C 191.812 386.14 196.672 391.359 197.985 395.984
C 198.495 397.778 198.708 399.631 199.153 401.437
C 199.68 403.573 200.667 405.635 201.317 407.741
C 202.931 412.968 204.501 418.202 206.223 423.394
C 207.168 426.244 207.886 429.14 208.902 431.971
C 209.28 433.025 209.57 434.388 210.252 435.28
C 210.696 435.36 210.754 432.979 210.77 432.679
C 210.919 429.741 211.41 426.833 211.721 423.907
C 212.514 416.431 213.495 408.966 214.274 401.489
C 214.702 394.904 215.539 387.986 216.678 381.483
C 217.071 374.841 218.043 368.011 218.907 361.409
C 219.055 356.282 219.939 351.042 220.517 345.943
C 221.715 335.36 222.714 324.711 223.885 314.103
C 224.376 309.654 225.397 304.934 225.339 300.467
C 226.667 294.238 226.231 287.669 227.579 281.423
C 227.899 276.765 228.438 272.126 228.833 267.47
C 229.836 265.628 229.469 263.021 229.839 261.013
C 231.062 254.379 231.059 247.533 232.411 240.912
C 233.165 234.289 233.375 227.567 234.312 220.967
C 235.18 216.781 234.083 211.558 237.748 208.414
C 239.075 207.275 240.651 207.656 241.99 206.872
C 250.21 207.162 250.915 215.094 251.316 221.515
C 251.526 226.189 251.965 231.022 252.598 235.656
C 252.831 237.364 252.529 239.351 253.317 240.929
C 253.342 247.514 253.735 254.974 255.226 261.4
C 254.688 266.891 256.136 273.027 256.61 278.525
C 257.226 285.676 257.638 292.87 258.487 299.998
C 259.37 307.422 260.731 314.962 260.787 322.501
C 260.93 328.79 262.345 335.171 262.791 341.353
C 262.55 345.916 263.514 350.903 264.013 355.45
C 264.207 357.215 264.091 359.772 264.82 361.382
C 264.477 365.679 265.391 370.886 266.037 375.158
C 266.319 377.023 265.961 379.243 266.808 380.968
C 266.551 387.988 268.791 395.015 268.804 402.012
C 269.129 408.394 269.706 415.208 270.85 421.486
C 270.884 428.326 272.569 435.17 272.77 442.005
C 272.997 448.068 273.491 454.484 274.426 460.478
C 275.11 466.975 275.473 473.517 276.108 480.021
C 276.224 482.64 276.603 485.221 276.747 487.836
C 276.863 489.945 276.694 491.958 277.513 493.852
C 276.551 494.076 277.035 495.818 277.142 496.665
C 277.515 499.627 277.788 502.603 278.377 505.533
C 278.563 506.045 278.72 506.515 278.771 507.059
C 279.615 511.893 279.759 516.868 280.285 521.746
C 281.38 531.916 282.22 542.098 283.218 552.266
C 283.239 553.048 283.784 552.67 284.427 552.549
C 283.249 554.195 283.57 555.696 283.778 557.721
C 284.138 561.246 284.113 565.424 285.248 568.777
C 285.766 568.551 285.722 566.972 285.754 566.48
C 285.892 564.324 286.14 562.164 286.468 560.029
C 287.837 551.146 288.645 542.396 289.548 533.47
C 290.521 532.029 290.626 529.935 291.015 528.245
C 292.286 522.729 292.311 516.976 293.263 511.407
C 293.697 507.62 294.572 503.773 294.816 499.949
C 294.793 496.597 295.77 492.946 296.216 489.607
C 296.637 486.452 296.646 482.943 297.532 479.891
C 297.86 473.305 298.943 466.45 299.92 459.927
C 299.876 455.358 300.914 450.575 301.228 445.993
C 301.512 445.342 301.565 444.656 301.663 443.959
C 302.831 436.496 303.445 428.786 305.021 421.4
C 305.83 414.767 307.066 408.108 307.699 401.46
C 308.465 395.798 309.676 387.892 317.257 388.611
C 318.418 388.721 319.452 388.965 320.526 389.406
C 324.968 392.308 324.678 398.408 327.771 402.153
C 328.631 405.521 330.64 408.796 332.004 411.993
C 333.469 415.426 334.698 419.482 336.679 422.639
C 337.279 424.603 338.514 428.763 340.093 430.103
C 340.238 430.828 340.501 431.491 340.72 432.193
C 342.938 432.778 345.707 432.295 348 432.297
C 352.102 432.301 356.411 432.704 360.487 432.318
C 362.653 432.523 364.916 432.621 367.094 432.582
C 367.739 432.571 368.938 432.765 369.282 432.077
C 369.808 432.457 371.657 432.758 371.896 432.032
C 372.416 432.505 373.759 432.47 374.482 432.423
C 376.633 432.284 378.818 432.532 380.959 432.354
C 385.261 432.448 390.26 432.967 394.496 432.232
C 395.131 432.253 397.231 432.559 397.459 432
C 398.219 432.911 402.151 432.5 403.29 432.288
C 404.566 428.487 405.83 424.668 407.16 420.882
C 409.082 414.258 412.386 407.659 413.765 400.921
C 415.389 394.391 417.588 387.797 419.731 381.415
C 420.28 380.175 420.529 378.784 420.877 377.478
C 422.865 374.203 422.473 369.845 425.383 366.981
C 428.53 363.883 434.88 364.504 436.925 368.632
C 438.375 371.56 438.432 375.209 439.168 378.354
C 440.921 385.846 442.411 393.451 443.797 401.019
C 444.283 404.714 445.535 408.27 446 411.965
C 445.898 412.686 445.421 413.176 445.37 413.934
C 445.243 415.851 445.97 417.48 446.732 419.17
C 447.086 419.955 447.091 420.916 447.717 421.546
C 448.711 428.802 450.198 435.9 451.65 443.068
C 452.066 445.121 452.563 447.151 453.036 449.19
C 453.243 450.085 453.352 451.145 453.996 451.827
C 454.539 451.721 455.073 451.8 455.431 451.334
C 456.337 449.141 456.805 446.661 457.671 444.412
C 460.478 441.315 460.218 436.172 462.998 432.925
C 465.039 431.687 468.702 432.269 471.003 432.253
C 471.626 432.249 473.681 432.559 473.925 432.001
C 475.278 432.88 479.39 432.468 480.987 432.262
C 483.423 432.324 486.069 432.618 488.485 432.308
C 489.453 432.364 490.512 432.415 491.473 432.292
C 494.415 432.407 497.541 432.577 500.474 432.322
C 507.009 432.501 513.975 432.925 520.48 432.305
C 527.299 432.413 534.184 432.398 541.001 432.243
C 542.441 432.212 544.125 432.135 545.435 432.793
C 546.128 433.388 546.769 433.993 547.525 434.512
C 550.775 439.056 550.83 443.288 546.899 447.449
C 546.136 448.193 545.058 448.667 543.992 448.57
C 542.898 448.347 541.147 448.056 540.402 448.953
C 539.827 447.812 537.008 448.334 535.851 448.33
C 532.016 448.317 528.176 448.279 524.342 448.329
C 523.176 448.344 521.096 447.917 520.376 448.995
C 520.261 447.722 517.059 448.309 516.001 448.297
C 511.018 448.241 505.91 447.941 500.938 448.25
C 500.328 448.33 499.713 447.949 499.005 447.978
C 494.868 448.148 490.704 448.013 486.553 448.03
C 484.832 448.037 482.53 447.635 480.928 448.343
C 479.774 447.882 475.073 447.768 474.896 449.028
C 473.695 447.553 472.622 450.299 472.275 451.175
C 470.973 454.454 469.728 457.761 468.501 461.068
C 466.377 466.795 464.278 472.55 462.01 478.221
C 461.07 480.574 459.691 482.91 459.127 485.386
C 457.632 486.5 456.427 488.405 454.814 489.275
C 453.643 489.907 452.198 489.851 451.364 490.996
C 451.097 490.36 449.581 490.235 448.961 490.005
C 447.521 489.472 446.22 488.48 445.48 487.116
C 443.715 483.864 443.253 479.697 442.553 476.105
C 441.466 470.523 440.252 464.942 439.089 459.378
C 438.028 457.931 437.953 455.335 437.619 453.597
C 436.848 449.596 435.754 445.589 435.263 441.542
C 434.432 434.715 432.925 427.741 431.456 421.021
C 430.566 416.523 430.104 411.467 428.518 407.175
C 426.814 411.685 424.656 416.169 423.597 420.891
C 422.206 422.661 421.267 426.16 421.193 428.378
C 420.661 428.206 420.264 429.841 420.093 430.285
C 419.274 432.413 418.611 434.622 418.563 436.923
C 415.595 439.659 416.132 445.053 412.858 447.817
C 409.338 448.675 405.111 448.229 401.502 448.253
C 400.15 448.262 398.663 448.004 397.361 448.392
C 396.865 447.707 395.122 448.126 394.423 448.391
C 393.527 447.847 392.027 448.137 390.995 448.128
C 388.002 448.104 384.894 447.887 381.915 448.184
C 381.309 448.382 381.012 448.011 380.357 447.969
C 378.514 447.851 376.624 448.103 374.773 448.09
C 373.862 448.084 372.584 447.92 371.82 448.424
C 371.345 447.757 370.051 448.052 369.405 448.339
C 368.721 447.956 367.769 448.116 366.995 448.108
C 364.85 448.084 362.641 448.062 360.503 448.235
C 353.824 448.437 347.122 448.249 340.44 448.264
C 337.767 447.8 334.645 449.047 332.028 447.999
C 328.847 446.725 328.552 442.247 326.557 439.974
C 325.519 437.214 323.991 434.679 322.689 432.044
C 322.056 430.765 321.582 429.137 320.26 428.441
C 317.991 443.691 315.715 459.06 314.025 474.387
C 313.601 478.229 313.144 482.068 312.797 485.917
C 312.676 487.252 312.003 489.26 312.764 490.436
C 311.992 490.891 312.137 491.944 311.972 492.78
C 311.54 494.977 311.431 497.22 311.091 499.43
C 309.634 508.89 308.418 518.423 307.628 527.941
C 307.477 528.3 307.465 528.689 307.354 529.064
C 306.289 530.406 306.244 531.636 305.868 533.241
C 305.016 536.874 304.956 540.706 304.512 544.402
C 304.31 546.088 303.506 548.352 304.493 549.716
C 303.504 549.993 303.588 551.28 303.414 552.261
C 302.906 555.124 302.692 558.113 302.312 560.999
C 302.076 565.357 301.246 569.747 300.712 574.079
C 300.483 575.936 299.865 578.187 300.24 580.03
C 300.064 582.31 299.314 584.559 299.673 586.918
C 298.672 588.966 298.682 591.345 298.386 593.585
C 298.08 595.897 297.539 598.158 297.275 600.479
C 296.563 606.985 295.587 613.479 294.839 619.976
C 294.355 624.843 293.696 629.697 293.123 634.555
C 292.947 636.043 292.058 639.009 292.875 640.338
C 292.168 641.843 292.137 643.56 291.58 645.12
C 290.708 647.559 288.209 649.997 285.577 650.367
C 284.053 650.582 282.548 650.254 281.026 650.261
C 277.433 648.141 275.866 645.127 275.737 641.027
C 275.291 634.279 273.717 627.135 274.036 620.387
C 273.306 613.77 272.73 607.144 272.127 600.514
C 271.854 593.83 269.896 587.11 270.021 580.402
C 269.64 573.819 267.768 566.966 268.039 560.372
C 267.333 556.55 267.423 552.46 267.025 548.584
C 266.133 539.92 265.816 530.945 264.406 522.369
C 263.548 517.147 263.701 511.741 262.891 506.501
C 262.2 502.034 262.14 497.459 261.443 493.012
C 261.235 491.688 261.477 490.128 260.781 488.934
C 260.467 486.81 260.206 484.748 260.08 482.542
C 260.039 481.719 260.199 480.743 259.737 480.021
C 259.628 477.51 259.154 475.003 259.219 472.488
C 259.209 472.319 259.199 472.151 259.188 471.982
C 257.985 466.99 258.045 461.427 257.748 456.313
C 257.461 451.368 256.582 446.458 256.278 441.522
C 256.12 434.781 254.681 428.112 254.484 421.386
C 253.817 414.778 252.826 408.16 252.297 401.535
C 252.178 394.896 251.044 388.132 250.324 381.535
C 249.857 375.187 248.794 368.886 248.153 362.552
C 247.814 355.061 246.542 347.476 245.839 340.009
C 245.587 334.513 244.753 329.007 244.276 323.525
C 244.168 322.173 244.051 320.83 243.899 319.482
C 243.653 315.543 243.182 311.617 242.722 307.703
C 242.566 306.381 242.383 305.039 242.19 303.721
C 242.152 303.461 241.824 301.798 241.662 302.165
C 240.412 307.158 240.105 312.789 239.734 317.917
C 239.411 324.107 238.263 330.464 237.537 336.651
C 236.572 344.868 236.006 353.205 235.182 361.455
C 234.36 365.555 234.077 369.86 233.615 374.022
C 233.37 376.235 232.674 378.634 232.852 380.86
C 232.36 385.651 231.615 390.42 231.149 395.219
C 230.972 397.049 230.416 399.137 230.746 400.96
C 230.704 402.424 230.107 404.058 229.928 405.551
C 229.32 410.629 228.458 415.871 228.298 420.978
C 228.432 423.633 227.707 426.553 227.37 429.192
C 226.871 433.093 226.78 437.201 225.803 441.016
C 225.69 445.662 224.93 450.414 224.475 455.044
C 224.373 456.078 223.589 459.208 224.443 459.907
C 223.66 461.358 223.883 463.578 223.721 465.198
C 223.369 468.725 223.045 472.252 222.776 475.786
C 222.57 478.494 222.697 480.824 221.224 483.188
C 220.924 483.801 220.826 484.317 220.755 484.992
C 220.667 484.215 218.773 485.48 218.364 485.697
C 217.02 486.409 215.676 486.695 214.15 486.611
C 211.545 486.469 209.288 485.436 207.852 483.209
C 207.302 482.357 207.118 481.31 206.502 480.508
C 203.566 470.948 200.357 461.441 197.411 451.874
C 196.336 448.38 195.274 444.889 194.147 441.413
C 193.734 440.139 193.662 438.687 193.023 437.496
C 191.718 431.917 189.415 426.713 187.806 421.245
C 185.392 425.706 183.086 430.253 180.711 434.751
C 180.298 435.535 178.041 438.666 178.963 439.329
C 177.941 439.875 177.814 440.594 177.222 441.549
C 176.145 443.287 174.962 445.338 173.436 446.725
C 172.013 448.018 169.747 447.31 168.34 448.434
C 167.7 447.932 166.295 448.218 165.497 448.228
C 162.704 448.262 159.908 448.234 157.115 448.306
C 156.3 448.327 153.883 448.017 153.961 448.873
C 153.229 449.115 152.538 448.682 151.772 448.855
C 151.672 448.208 149.472 448.409 148.891 448.393
C 146.001 448.316 142.108 447.739 139.364 448.761
C 138.453 447.897 135.633 448.355 134.414 448.353
C 129.952 448.346 125.439 448.588 120.984 448.389
C 115.687 448.24 110.322 448.315 105 448.348
C 103.867 448.356 100.345 447.781 99.905 448.948
C 99.34 447.862 96.34 448.369 95.233 448.364
C 90.475 448.345 85.719 448.396 80.969 448.488
C 77.16 448.472 72.98 448.278 68.999 448.29
C 66.044 448.3 62.915 448.591 59.981 448.276
C 55.295 447.975 48.707 449.525 46.743 443.747
C 46.406 442.755 46.255 441.729 46.188 440.685
C 45.32 437.952 48.259 434.347 50.454 433.162
C 53.044 431.765 56.687 432.359 59.478 432.688
C 61.986 432.984 64.586 432.807 67.107 432.779
C 75.182 432.689 83.401 432.145 91.459 432.397
C 96.046 432.54 100.634 432.862 105.231 432.827
C 117.298 432.735 129.39 432.276 141.45 432.632 Z"
opacity="1" fill="rgb(167,216,238)" fill-rule="evenodd" />
<path d="
M 125.99 300.96
C 128.417 293.914 133.141 286.165 138.316 280.821
C 138.878 280.212 139.336 279.577 139.766 278.868
C 146.066 271.912 153.388 265.793 161.859 261.645
C 167.716 258.777 173.787 256.785 179.997 254.873
C 187.257 253.9 194.139 252.639 201.512 252.708
C 205.662 252.866 209.858 253.181 213.947 253.936
C 215.996 254.314 217.936 255.28 220.03 255.381
C 220.359 255.642 220.825 255.624 221.122 255.857
C 221.307 256.002 221.156 256.802 221.149 256.963
C 221.094 258.115 220.926 259.378 221.096 260.518
C 221.575 263.159 220.463 266.826 220.235 269.548
C 220.1 271.15 220.45 272.943 220.027 274.483
C 219.944 273.849 219.866 273.265 219.668 272.653
C 218.424 271.487 216.392 271.267 214.789 270.858
C 210.173 269.68 205.251 269.098 200.497 268.883
C 195.713 267.92 189.695 269.296 184.981 270.253
C 183.652 270.523 180.994 270.747 180.201 271.856
C 178.989 271.384 176.957 272.556 175.844 273.022
C 172.704 274.338 169.636 275.831 166.649 277.466
C 165.278 278.216 163.141 279.008 162.312 280.382
C 161.227 280.83 160.089 281.061 159.779 282.315
C 158.704 282.228 156.441 284.78 155.671 285.506
C 152.08 288.892 148.914 292.544 146.319 296.751
C 145.715 297.731 144.012 299.715 144.341 300.907
C 143.486 301.189 143.223 302.408 142.853 303.181
C 141.771 305.439 140.322 307.901 139.744 310.34
C 134.124 328.627 135.317 348.198 141.605 366.211
C 142.914 369.961 144.309 373.694 146.007 377.289
C 146.58 378.503 146.984 380.093 147.832 381.129
C 149.057 383.085 149.891 385.426 150.978 387.481
C 153.471 392.195 156.052 396.94 158.849 401.48
C 160.026 403.39 161.419 405.158 162.627 407.047
C 163.085 407.762 163.844 408.564 163.919 409.438
C 162.782 412.263 158.402 414.689 156.085 416.545
C 155.298 417.177 154.021 418.497 153.052 418.726
C 149.631 417.344 147.421 412.626 145.452 409.769
C 139.587 401.26 133.991 391.772 130.453 382.02
C 129.698 379.481 128.345 377.008 127.435 374.496
C 125.71 369.736 124.18 364.929 122.986 360.007
C 121.718 353.239 120.126 346.483 119.866 339.577
C 119.365 326.311 121.446 313.408 125.99 300.96 Z"
opacity="1" fill="rgb(166,215,237)" fill-rule="evenodd" />
<path d="
M 144.499 459.831
C 148.07 459.327 151.84 459.632 155.439 459.632
C 157.311 459.632 158.837 459.406 160.23 460.481
C 160.158 466.77 159.328 473.822 160.396 480.032
C 160.448 480.665 160.402 481.293 160.473 481.923
C 159.263 481.478 156.615 481.531 155.686 482.471
C 155.275 486.334 155.352 490.325 155.295 494.211
C 155.268 496.054 154.913 498.457 155.463 500.222
C 154.48 500.306 153.475 500.322 152.491 500.25
C 151.753 499.366 152.234 496.622 152.251 495.499
C 152.316 491.159 152.772 486.477 152.223 482.169
C 149.812 482.136 147.398 481.776 144.99 481.853
C 144.401 481.407 144.396 480.724 144.298 480.018
C 144.056 475.109 144.01 470.15 144.018 465.234
C 144.021 463.849 143.414 460.808 144.499 459.831 Z"
opacity="1" fill="rgb(243,203,194)" fill-rule="evenodd" />
<path d="
M 168.34 448.434
C 169.747 447.31 172.013 448.018 173.436 446.725
C 174.962 445.338 176.145 443.287 177.222 441.549
C 177.814 440.594 177.941 439.875 178.963 439.329
C 180.878 439.473 182.797 439.6 184.715 439.711
C 184.003 446.298 184.549 453.362 184.572 459.995
C 184.595 466.743 184.105 473.692 184.749 480.412
C 184.493 481.737 183.073 481.396 181.961 481.552
C 181.465 481.58 181.033 481.548 180.548 481.445
C 179.545 481.511 178.344 481.409 177.433 481.862
C 176.932 486.392 177.364 491.17 177.43 495.727
C 177.445 496.783 177.968 499.858 177.35 500.658
C 176.446 500.827 175.209 500.994 174.37 500.549
C 173.697 494.386 174.383 488.054 174.066 481.861
C 173.108 481.176 169.6 481.313 168.448 481.509
C 168.343 474.436 168.746 467.065 168.236 459.991
C 168.14 456.343 167.728 452.022 168.34 448.434 Z"
opacity="1" fill="rgb(157,196,221)" fill-rule="evenodd" />
<path d="
M 224.443 459.907
C 225.851 459.781 227.354 459.724 228.766 459.789
C 228.389 457.923 228.665 455.95 228.553 454.068
C 228.923 453.502 231.262 453.705 231.882 454.087
C 231.786 455.461 231.258 458.767 231.956 459.897
C 233.957 459.739 236.259 459.676 238.219 460.149
C 237.738 472.599 238.496 485.065 238.256 497.521
C 238.237 498.196 237.941 499.224 238.756 499.443
C 238.851 499.768 236.59 499.738 236.227 499.748
C 234.399 499.798 232.497 499.705 230.748 500.298
C 230.71 505.377 230.352 510.641 230.791 515.704
C 229.769 515.683 228.714 515.564 227.696 515.614
C 227.746 512.027 227.808 508.424 227.791 504.835
C 227.784 503.361 228.046 501.618 227.775 500.182
C 225.465 499.866 223.121 499.669 220.785 499.72
C 219.739 495.151 220.883 489.658 220.755 484.992
C 220.826 484.317 220.924 483.801 221.224 483.188
C 222.697 480.824 222.57 478.494 222.776 475.786
C 223.045 472.252 223.369 468.725 223.721 465.198
C 223.883 463.578 223.66 461.358 224.443 459.907 Z"
opacity="1" fill="rgb(122,173,208)" fill-rule="evenodd" />
<path d="
M 245.362 473.461
C 246.028 474.758 245.466 476.847 245.409 478.268
C 245.287 481.322 245.431 484.459 245.464 487.522
C 245.597 500.123 245.134 512.674 245.683 525.292
C 247.007 525.579 248.63 525.129 249.996 525.109
C 252.643 525.07 255.349 525.152 257.999 525.21
C 258.469 525.221 261.573 525.681 261.706 525.476
C 261.821 527.869 256.904 526.069 255.498 527.107
C 255.528 528.242 255.624 529.372 255.655 530.507
C 254.462 532.105 255.671 534.805 255.752 536.57
C 255.808 537.791 255.321 538.734 255.646 539.996
C 255.235 543.005 256.729 547.308 255.306 550.072
C 254.435 550.071 253.594 550.124 252.72 550.083
C 252.255 546.602 252.636 542.995 252.683 539.502
C 253.007 538.888 252.862 538.139 252.894 537.466
C 252.988 535.446 253.409 532.861 252.579 530.962
C 252.614 529.619 253.049 527.941 252.617 526.662
C 250.902 525.704 247.056 526.304 245.065 526.295
C 244.103 525.696 244.324 522.128 244.283 521.019
C 244.057 514.053 244.981 506.783 244.245 499.987
C 244.042 493.488 244.507 486.993 244.012 480.489
C 244.184 478.072 245.251 475.81 245.362 473.461 Z"
opacity="1" fill="rgb(217,180,157)" fill-rule="evenodd" />
<path d="
M 246.994 471.891
C 248.248 473.542 250.839 472.241 252.438 472.115
C 253.055 472.067 253.327 472.69 253.91 472.255
C 254.443 472.274 254.936 472.282 255.466 472.225
C 256.09 472.245 259.016 471.866 259.219 472.488
C 259.154 475.003 259.628 477.51 259.737 480.021
C 259.749 480.839 259.609 481.832 260.08 482.542
C 260.206 484.748 260.467 486.81 260.781 488.934
C 259.755 491.652 260.731 495.84 260.896 498.71
C 261.284 505.467 261.275 512.235 261.669 518.99
C 261.679 520.999 261.851 523.007 261.727 525.011
C 261.72 525.166 261.713 525.321 261.706 525.476
C 261.573 525.681 258.469 525.221 257.999 525.21
C 255.349 525.152 252.643 525.07 249.996 525.109
C 248.63 525.129 247.007 525.579 245.683 525.292
C 245.134 512.674 245.597 500.123 245.464 487.522
C 245.431 484.459 245.287 481.322 245.409 478.268
C 245.466 476.847 246.028 474.758 245.362 473.461
C 245.146 471.818 245.532 471.995 246.994 471.891 Z"
opacity="1" fill="rgb(240,94,55)" fill-rule="evenodd" />
<path d="
M 246.994 471.891
C 248.038 471.83 252.425 472.24 252.622 470.987
C 252.733 471.97 252.969 472.018 253.91 472.255
C 253.327 472.69 253.055 472.067 252.438 472.115
C 250.839 472.241 248.248 473.542 246.994 471.891 Z"
opacity="0.996" fill="rgb(223,119,80)" fill-rule="evenodd" />
<path d="
M 252.579 530.962
C 253.409 532.861 252.988 535.446 252.894 537.466
C 252.862 538.139 253.007 538.888 252.683 539.502
C 252.673 538.856 252.683 539.185 252.65 538.517
C 252.342 535.955 252.493 533.54 252.579 530.962 Z"
opacity="1" fill="rgb(213,161,136)" fill-rule="evenodd" />
<path d="
M 255.876 471.502
C 255.64 471.679 255.135 471.924 255.466 472.225
C 254.936 472.282 254.443 472.274 253.91 472.255
C 252.969 472.018 252.733 471.97 252.622 470.987
C 252.539 467.178 252.928 463.301 252.539 459.509
C 252.45 456.556 252.666 453.606 252.624 450.66
C 253.561 450.459 254.398 450.345 255.356 450.338
C 256.383 451.423 255.783 454.383 255.736 455.769
C 255.608 459.51 255.734 463.257 255.619 466.998
C 255.581 468.214 255.197 470.487 255.876 471.502 Z"
opacity="0.996" fill="rgb(209,119,89)" fill-rule="evenodd" />
<path d="
M 255.876 471.502
C 256.687 471.455 258.498 471.617 259.188 471.982
C 259.199 472.151 259.209 472.319 259.219 472.488
C 259.016 471.866 256.09 472.245 255.466 472.225
C 255.135 471.924 255.64 471.679 255.876 471.502 Z"
opacity="0.996" fill="rgb(214,140,106)" fill-rule="evenodd" />
<path d="
M 259.737 480.021
C 260.199 480.743 260.039 481.719 260.08 482.542
C 259.609 481.832 259.749 480.839 259.737 480.021 Z"
opacity="1" fill="rgb(245,245,246)" fill-rule="evenodd" />
<path d="
M 281.785 285.343
C 283.077 283.816 284.532 282.368 285.721 280.76
C 288.42 276.958 292.409 273.412 296.002 270.462
C 297.553 269.188 299.458 268.159 300.896 266.794
C 303.065 265.605 305.056 264.109 307.243 262.943
C 308.934 262.041 310.85 261.42 312.398 260.267
C 314.033 259.769 315.538 258.85 317.138 258.242
C 318.361 257.776 319.861 257.588 320.927 256.796
C 327.357 254.743 333.733 253.31 340.481 252.787
C 347.246 252.73 353.793 253.114 360.427 254.506
C 370.747 257.085 380.744 260.865 389.483 267.042
C 393.492 269.877 396.806 273.243 400.343 276.604
C 401.628 278.341 403.234 279.93 404.681 281.516
C 407.347 285.341 410.246 289.013 412.401 293.176
C 413.976 296.217 414.987 299.679 416.694 302.618
C 417.62 306.654 419.205 310.549 420.117 314.602
C 420.212 316.645 420.541 319.055 421.206 320.992
C 421.596 327.817 421.788 334.632 421.337 341.465
C 420.451 351.311 418.509 361.142 415.264 370.481
C 414.308 373.235 413.157 375.92 412.021 378.604
C 411.732 379.286 411.689 380.162 411.277 380.769
C 408.613 387.51 404.139 393.639 401.73 400.443
C 401.429 401.146 400.905 401.482 400.664 402.328
C 398.991 403.982 398.038 406.759 396.782 408.758
C 394.732 412.017 392.155 414.945 390.109 418.179
C 388.676 419.309 387.689 418.285 386.431 417.307
C 384.272 415.627 382.251 413.476 379.948 412.019
C 379.226 410.852 378.569 409.897 378.278 408.523
C 378.203 405.712 381.611 402.597 383.034 400.305
C 386.808 394.227 391.178 388.097 393.828 381.414
C 395.944 378.12 397.13 373.501 398.461 369.82
C 401.777 360.656 404.78 351.302 405.352 341.501
C 406.089 339.971 405.6 337.219 405.59 335.532
C 405.559 330.329 405.51 325.202 404.715 320.045
C 403.909 315.478 402.747 310.781 400.925 306.51
C 400.364 304.748 399.535 302.967 398.579 301.388
C 397.882 299.464 396.412 297.646 395.327 295.918
C 391.437 289.729 386.333 285.093 380.678 280.577
C 377.207 277.536 372.378 275.359 368.186 273.499
C 366.156 272.598 363.823 271.492 361.609 271.192
C 361.149 270.921 360.669 270.867 360.173 270.686
C 358.758 269.944 356.697 269.872 355.125 269.581
C 350.097 268.653 345.124 269.071 340.061 268.788
C 337.89 269.459 335.375 269.439 333.129 269.884
C 328.745 270.754 324.233 272.041 320.325 274.248
C 319.023 274.302 317.721 275.342 316.643 276.001
C 313.768 277.758 310.657 279.291 308.28 281.678
C 305.829 283.151 301.523 286.177 300.28 288.767
C 296.922 290.912 294.341 295.276 291.97 298.4
C 291.351 299.217 290.94 300.493 290.207 301.159
C 288.54 303.031 287.343 305.511 286.067 307.662
C 284.13 310.927 282.041 314.275 280.603 317.796
C 279.077 320.122 277.909 323.387 276.968 326.016
C 276.55 327.184 276.227 328.922 275.418 329.878
C 274.545 327.077 273.034 324.397 272.355 321.55
C 271.264 317.665 268.992 314.144 267.749 310.286
C 266.825 307.419 266.78 303.997 266.778 301.003
C 266.806 297.539 266.914 294.048 266.532 290.594
C 266.262 288.154 265.517 285.276 265.909 282.853
C 267.112 283.122 267.884 284.671 268.513 285.637
C 270.034 287.976 271.491 290.323 273.183 292.545
C 273.608 293.102 274.287 294.712 274.879 294.917
C 277.063 292.595 278.475 289.575 280.53 287.123
C 280.985 286.557 281.393 285.954 281.785 285.343 Z"
opacity="1" fill="rgb(167,216,238)" fill-rule="evenodd" />
<path d="
M 277.513 493.852
C 278.693 493.932 279.08 494.369 279.24 495.491
C 279.302 496.79 278.874 498.887 279.757 499.933
C 279.296 500.911 278.251 504.326 279.231 505.282
C 279.344 505.392 280.332 505.344 280.523 505.353
C 279.565 505.664 279.218 506.241 278.771 507.059
C 278.72 506.515 278.563 506.045 278.377 505.533
C 277.788 502.603 277.515 499.627 277.142 496.665
C 277.035 495.818 276.551 494.076 277.513 493.852 Z"
opacity="0.996" fill="rgb(133,189,214)" fill-rule="evenodd" />
<path d="
M 278.771 507.059
C 279.218 506.241 279.565 505.664 280.523 505.353
C 281.983 505.275 283.46 505.415 284.915 505.532
C 284.286 509.13 284.891 513.335 284.882 517.001
C 284.861 525.084 284.806 533.168 284.776 541.251
C 284.766 544.132 284.989 547.003 285.167 549.873
C 285.233 550.948 285.71 552.327 284.427 552.549
C 283.784 552.67 283.239 553.048 283.218 552.266
C 282.22 542.098 281.38 531.916 280.285 521.746
C 279.759 516.868 279.615 511.893 278.771 507.059 Z"
opacity="1" fill="rgb(58,147,191)" fill-rule="evenodd" />
<path d="
M 293.263 511.407
C 292.311 516.976 292.286 522.729 291.015 528.245
C 290.626 529.935 290.521 532.029 289.548 533.47
C 290.138 526.425 288.836 518.797 290.208 511.888
C 291.216 511.619 292.219 511.454 293.263 511.407 Z"
opacity="1" fill="rgb(89,160,195)" fill-rule="evenodd" />
<path d="
M 301.663 443.959
C 301.565 444.656 301.512 445.342 301.228 445.993
C 301.295 445.275 301.276 444.594 301.663 443.959 Z"
opacity="1" fill="rgb(217,223,237)" fill-rule="evenodd" />
<path d="
M 307.628 527.941
C 307.263 535.165 307.075 542.42 307.131 549.659
C 306.378 549.411 305.272 549.633 304.493 549.716
C 303.506 548.352 304.31 546.088 304.512 544.402
C 304.956 540.706 305.016 536.874 305.868 533.241
C 306.244 531.636 306.289 530.406 307.354 529.064
C 307.465 528.689 307.477 528.3 307.628 527.941 Z"
opacity="1" fill="rgb(79,158,196)" fill-rule="evenodd" />
<path d="
M 313.389 496.005
C 314.151 498.362 313.44 502.003 313.461 504.495
C 313.524 511.667 313.242 518.856 313.323 526.014
C 312.222 522.92 313.368 520.052 313.367 517.02
C 313.363 510.015 313.401 503.01 313.389 496.005 Z"
opacity="1" fill="rgb(212,144,122)" fill-rule="evenodd" />
<path d="
M 313.926 490.399
C 315.122 490.546 316.278 490.645 317.477 490.843
C 321.014 492.216 324.975 491.8 328.66 492.254
C 329.381 495.524 328.845 499.167 329.016 502.501
C 329.565 513.227 328.529 524.178 329.466 534.878
C 329.55 535.842 329.859 535.935 330.405 536.662
C 330.691 537.043 329.858 538.196 329.787 538.582
C 329.618 539.51 330.327 539.911 330.399 540.569
C 328.12 540.88 325.556 540.189 323.47 541.353
C 324.024 547.863 323.595 554.476 323.895 561
C 323.892 565.148 323.878 569.304 323.915 573.453
C 323.932 575.419 323.653 577.611 324.055 579.538
C 324.367 580.658 323.915 582.903 323.94 584.229
C 324.033 589.253 323.403 594.557 324.02 599.537
C 322.964 599.603 321.857 599.418 320.834 599.602
C 320.349 597.675 320.648 595.478 320.637 593.504
C 320.617 589.665 320.678 585.818 320.589 581.981
C 320.489 576.178 320.638 570.313 320.696 564.5
C 320.713 562.805 321.344 559.432 320.375 558.01
C 320.256 552.422 320.879 546.792 320.674 541.214
C 318.565 541.095 315.273 541.578 313.324 540.748
C 313.445 535.852 313.366 530.913 313.323 526.014
C 313.242 518.856 313.524 511.667 313.461 504.495
C 313.44 502.003 314.151 498.362 313.389 496.005
C 313.389 494.804 313.112 491.174 313.926 490.399 Z"
opacity="1" fill="rgb(241,93,54)" fill-rule="evenodd" />
<path d="
M 317.477 490.843
C 318.596 490.628 319.481 490.179 320.659 490.121
C 321.123 489.407 320.815 487.78 320.832 486.94
C 320.894 483.89 321.351 480.279 320.943 477.291
C 320.81 476.325 320.555 473.209 321.449 472.904
C 322.156 472.826 323.476 472.289 323.896 472.955
C 323.913 474.98 323.826 476.999 323.819 479.022
C 323.908 481.68 323.704 484.344 323.781 487.005
C 323.808 487.933 323.463 489.178 323.999 489.978
C 325.277 489.814 329.024 489.822 329.946 490.676
C 330.511 494.446 330.26 498.325 330.317 502.127
C 330.407 508.148 330.461 514.37 330.815 520.387
C 330.636 525.414 330.858 530.458 330.653 535.488
C 330.615 536.427 330.057 539.805 330.95 540.297
C 330.692 540.545 330.861 540.429 330.399 540.569
C 330.327 539.911 329.618 539.51 329.787 538.582
C 329.858 538.196 330.691 537.043 330.405 536.662
C 329.859 535.935 329.55 535.842 329.466 534.878
C 328.529 524.178 329.565 513.227 329.016 502.501
C 328.845 499.167 329.381 495.524 328.66 492.254
C 324.975 491.8 321.014 492.216 317.477 490.843 Z"
opacity="0.996" fill="rgb(214,137,107)" fill-rule="evenodd" />
<path d="
M 339.992 467.402
C 341.501 467.376 343.022 467.537 344.528 467.457
C 345.136 466.408 344.521 463.918 344.601 462.694
C 345.493 462.672 346.371 462.653 347.261 462.719
C 347.814 463.858 347.331 466.195 347.432 467.508
C 349.033 467.356 350.741 467.625 352.368 467.583
C 352.631 467.576 354.141 467.451 354.29 467.69
C 354.43 467.914 354.215 468.22 354.257 468.481
C 354.07 472.969 354.289 477.513 354.341 482.006
C 354.431 488.455 354.304 494.909 354.448 501.353
C 352.292 501.346 350.113 501.395 347.959 501.341
C 346.715 501.239 346.232 500.782 344.894 501.208
C 343.911 500.684 343.427 501.426 342.504 501.375
C 341.799 501.336 341.243 500.931 340.497 500.931
C 339.625 500.967 338.747 501.091 337.908 501.331
C 337.671 501.032 337.808 500.399 337.794 500.011
C 337.742 498.517 337.781 497 337.787 495.503
C 337.809 490.005 337.86 484.504 337.831 479.007
C 337.712 475.226 337.578 471.232 337.952 467.469
C 338.633 467.456 339.312 467.407 339.992 467.402 Z"
opacity="1" fill="rgb(26,142,195)" fill-rule="evenodd" />
<path d="
M 340.497 500.931
C 341.243 500.931 341.799 501.336 342.504 501.375
C 343.427 501.426 343.911 500.684 344.894 501.208
C 344.596 501.793 344.472 502.367 344.259 502.981
C 344.176 500.36 341.73 502.57 340.497 500.931 Z"
opacity="0.988" fill="rgb(178,203,217)" fill-rule="evenodd" />
<path d="
M 344.259 502.981
C 344.472 502.367 344.596 501.793 344.894 501.208
C 346.232 500.782 346.715 501.239 347.959 501.341
C 347.047 502.069 347.452 504.698 347.453 505.813
C 347.456 509.115 347.472 512.415 347.434 515.716
C 347.419 517.056 347.067 518.9 347.855 520.046
C 346.508 524.539 347.384 530.464 347.377 535.204
C 347.375 536.359 346.877 539.163 347.917 539.896
C 347.436 540.538 347.8 541.405 347.411 541.934
C 346.671 542.16 345.646 542.288 344.909 542.015
C 343.801 540.327 344.288 537.32 344.288 535.37
C 344.286 530.247 344.282 525.123 344.316 520
C 344.338 514.36 344.566 508.61 344.259 502.981 Z"
opacity="0.996" fill="rgb(75,154,188)" fill-rule="evenodd" />
<path d="
M 369.405 448.339
C 370.051 448.052 371.345 447.757 371.82 448.424
C 371.441 450.175 371.732 452.215 371.766 454.006
C 371.78 454.755 371.572 455.786 371.938 456.435
C 373.828 456.297 375.619 456.666 377.497 456.654
C 378.369 456.648 379.459 456.33 379.405 457.486
C 379.216 461.289 379.437 465.146 379.368 468.959
C 379.313 472.015 378.939 475.49 379.602 478.488
C 379.633 478.705 377.538 478.761 377.099 478.764
C 374.414 478.78 371.539 477.861 369.016 478.838
C 367.345 478.885 365.682 478.844 364.011 478.802
C 363.436 478.788 362.404 479.061 361.912 478.758
C 361.929 473.842 361.826 468.92 361.865 464.001
C 361.883 461.749 361.567 459.36 362.068 457.152
C 363.701 455.575 367.066 456.467 369.159 456.246
C 369.335 453.656 368.873 450.88 369.405 448.339 Z"
opacity="1" fill="rgb(30,141,193)" fill-rule="evenodd" />
<path d="
M 372.161 420.903
C 371.112 424.259 371.89 428.555 371.896 432.032
C 371.657 432.758 369.808 432.457 369.282 432.077
C 368.893 428.923 369.212 425.673 368.998 422.501
C 369.081 420.511 368.947 418.536 368.975 416.547
C 369.766 415.817 370.952 415.669 372.008 415.817
C 371.8 417.206 371.606 419.579 372.161 420.903 Z"
opacity="0.996" fill="rgb(52,139,182)" fill-rule="evenodd" />
<path d="
M 369.016 478.838
C 371.539 477.861 374.414 478.78 377.099 478.764
C 377.538 478.761 379.633 478.705 379.602 478.488
C 379.778 479.093 379.717 478.78 379.778 479.429
C 379.558 478.683 378.597 478.966 377.955 478.973
C 376.204 478.991 374.494 479.157 372.767 479.245
C 371.893 480.682 372.391 483.441 372.38 485.105
C 372.348 490.073 371.665 495.594 372.653 500.475
C 372.388 501.92 369.558 501.888 369.353 500.532
C 369.254 495.228 369.271 489.91 369.287 484.605
C 369.29 483.378 369.798 479.666 369.016 478.838 Z"
opacity="0.996" fill="rgb(102,169,199)" fill-rule="evenodd" />
<path d="
M 386.857 456.408
C 387.881 457.377 387.262 460.608 387.279 462.004
C 387.349 467.663 387.296 473.328 387.13 478.985
C 387.081 480.668 386.955 482.322 387.049 484.005
C 387.079 484.533 387.385 485.349 386.859 485.622
C 386.847 484.088 387.438 481.411 386.912 479.995
C 386.745 479.544 386.521 479.762 386.267 479.378
C 386.024 479.011 386.141 478.041 386.127 477.615
C 386.075 476 386.075 474.385 386.106 472.77
C 386.185 468.65 386.146 464.514 386.276 460.397
C 386.319 459.042 386.936 457.713 386.857 456.408 Z"
opacity="1" fill="rgb(210,143,126)" fill-rule="evenodd" />
<path d="
M 388.487 455.429
C 390.192 456.997 393.326 456.058 395.401 456.205
C 397.498 456.565 399.369 456.673 401.501 456.688
C 401.864 456.691 403.311 456.5 403.46 456.95
C 403.478 457.002 403.342 457.824 403.321 457.957
C 403.443 460.521 402.975 463.169 402.867 465.739
C 402.716 469.366 403.008 472.88 403.194 476.483
C 403.352 479.519 403.266 482.48 403.907 485.468
C 403.461 485.584 402.784 485.261 402.295 485.23
C 400.669 485.126 398.132 485.011 396.726 485.934
C 396.591 489.903 396.626 494.026 396.948 497.989
C 396.903 499.584 396.975 501.571 396.402 503.066
C 395.748 503.299 394.533 503.334 393.942 502.994
C 393.847 502.166 393.81 501.355 393.81 500.523
C 393.677 495.881 393.515 491.091 393.798 486.455
C 393.817 486.315 393.948 485.874 393.688 485.775
C 392.658 485.382 390.924 485.847 389.831 485.863
C 388.783 485.878 388.629 485.344 387.497 485.758
C 387.004 485.741 387.211 485.807 386.859 485.622
C 387.385 485.349 387.079 484.533 387.049 484.005
C 386.955 482.322 387.081 480.668 387.13 478.985
C 387.296 473.328 387.349 467.663 387.279 462.004
C 387.262 460.608 387.881 457.377 386.857 456.408
C 386.956 455.369 387.622 455.619 388.487 455.429 Z"
opacity="1" fill="rgb(242,89,49)" fill-rule="evenodd" />
<path d="
M 387.497 485.758
C 388.629 485.344 388.783 485.878 389.831 485.863
C 390.924 485.847 392.658 485.382 393.688 485.775
C 393.948 485.874 393.817 486.315 393.798 486.455
C 393.701 485.796 392.568 486.034 391.984 486.033
C 390.724 486.03 388.577 486.484 387.497 485.758 Z"
opacity="0.996" fill="rgb(227,187,173)" fill-rule="evenodd" />
<path d="
M 388.487 455.429
C 389.983 455.258 391.509 455.209 393.014 455.22
C 393.453 455.223 394.299 455.505 394.4 455.023
C 394.735 455.423 394.993 455.896 395.401 456.205
C 393.326 456.058 390.192 456.997 388.487 455.429 Z"
opacity="1" fill="rgb(219,103,68)" fill-rule="evenodd" />
<path d="
M 397.459 432
C 397.231 432.559 395.131 432.253 394.496 432.232
C 394.079 431.836 394.21 430.582 394.205 430.014
C 394.187 427.915 394.293 426.083 394.89 424.086
C 395.747 424.152 396.679 424.089 397.481 424.416
C 397.167 426.88 397.313 429.527 397.459 432 Z"
opacity="0.996" fill="rgb(207,81,55)" fill-rule="evenodd" />
<path d="
M 394.423 448.391
C 395.122 448.126 396.865 447.707 397.361 448.392
C 396.723 450.666 397.365 453.38 397.177 455.738
C 398.794 455.333 400.861 455.582 402.529 455.683
C 403.2 455.723 404.299 455.587 404.514 456.301
C 404.154 456.883 403.661 457.362 403.321 457.957
C 403.342 457.824 403.478 457.002 403.46 456.95
C 403.311 456.5 401.864 456.691 401.501 456.688
C 399.369 456.673 397.498 456.565 395.401 456.205
C 394.993 455.896 394.735 455.423 394.4 455.023
C 394.23 452.86 394.288 450.558 394.423 448.391 Z"
opacity="1" fill="rgb(217,95,62)" fill-rule="evenodd" />
<path d="
M 403.321 457.957
C 403.661 457.362 404.154 456.883 404.514 456.301
C 404.686 457.328 404.871 458.361 404.929 459.402
C 403.813 460.732 404.197 463.368 404.193 465
C 404.184 469.831 404.391 474.677 404.356 479.501
C 404.344 481.169 404.393 482.813 404.23 484.475
C 404.189 484.896 404.346 486.014 403.927 486.214
C 404.343 486.248 404.096 486.278 403.907 485.468
C 403.266 482.48 403.352 479.519 403.194 476.483
C 403.008 472.88 402.716 469.366 402.867 465.739
C 402.975 463.169 403.443 460.521 403.321 457.957 Z"
opacity="0.996" fill="rgb(208,159,142)" fill-rule="evenodd" />
<path d="
M 410.439 465.475
C 411.334 466.131 410.946 468.456 410.897 469.442
C 410.722 472.966 411.092 476.493 411.171 480.016
C 411.316 486.55 410.834 493.031 410.688 499.554
C 410.584 504.236 410.974 508.921 411.071 513.597
C 411.143 517.027 410.187 520.712 410.834 524.117
C 410.635 524.111 410.435 524.105 410.235 524.099
C 409.452 523.159 409.584 521.116 409.479 519.941
C 409.225 518.36 409.597 516.388 409.588 514.747
C 409.558 509.652 409.795 504.531 409.126 499.472
C 409.155 496.558 409.756 493.642 409.865 490.718
C 410.016 486.659 409.658 482.615 409.73 478.569
C 409.807 474.201 410.367 469.819 410.439 465.475 Z"
opacity="0.996" fill="rgb(211,159,134)" fill-rule="evenodd" />
<path d="
M 411.42 464.38
C 413.863 464.783 416.468 464.305 418.914 464.688
C 421.181 464.927 423.542 464.995 425.789 465.353
C 426.606 466.631 426.119 468.557 426.139 470.006
C 426.192 473.844 426.254 477.673 426.195 481.51
C 426.054 490.68 426.375 499.84 426.405 509.006
C 426.421 513.745 425.518 519.194 426.39 523.847
C 424.845 523.871 423.109 523.478 421.592 523.881
C 420.572 524.151 419.974 525.049 420.636 525.953
C 420.461 530.769 420.6 535.689 420.849 540.496
C 420.829 543.483 420.951 546.473 420.831 549.457
C 419.794 549.293 418.702 549.498 417.69 549.23
C 417.855 546.152 417.674 543.061 417.813 539.982
C 417.481 535.432 417.664 530.57 417.892 526.013
C 418.036 525.449 418.112 524.979 418.019 524.403
C 417.526 524.434 417.523 524.947 417.032 524.992
C 416.458 525.044 416.569 524.317 416.011 524.237
C 415.239 524.126 414.719 524.907 413.952 524.914
C 413.008 524.922 411.804 524.311 410.834 524.117
C 410.187 520.712 411.143 517.027 411.071 513.597
C 410.974 508.921 410.584 504.236 410.688 499.554
C 410.834 493.031 411.316 486.55 411.171 480.016
C 411.092 476.493 410.722 472.966 410.897 469.442
C 410.946 468.456 411.334 466.131 410.439 465.475
C 410.579 464.508 410.283 464.111 411.42 464.38 Z"
opacity="1" fill="rgb(244,91,52)" fill-rule="evenodd" />
<path d="
M 410.235 524.099
C 410.435 524.105 410.635 524.111 410.834 524.117
C 411.804 524.311 413.008 524.922 413.952 524.914
C 414.719 524.907 415.239 524.126 416.011 524.237
C 416.569 524.317 416.458 525.044 417.032 524.992
C 417.523 524.947 417.526 524.434 418.019 524.403
C 418.112 524.979 418.036 525.449 417.892 526.013
C 417.892 524.526 413.118 525.081 411.758 524.831
C 411.039 524.7 410.386 524.888 410.235 524.099 Z"
opacity="1" fill="rgb(229,188,168)" fill-rule="evenodd" />
<path d="
M 418.417 463.51
C 418.724 463.884 418.665 464.297 418.914 464.688
C 416.468 464.305 413.863 464.783 411.42 464.38
C 412.754 463.091 414.53 463.103 416.297 463.288
C 416.788 463.339 418.286 463.921 418.417 463.51 Z"
opacity="1" fill="rgb(207,166,141)" fill-rule="evenodd" />
<path d="
M 418.563 436.923
C 418.611 434.622 419.274 432.413 420.093 430.285
C 420.264 429.841 420.661 428.206 421.193 428.378
C 422.102 432.247 420.771 436.604 421.256 440.531
C 421.56 442.386 421.25 444.596 421.223 446.492
C 421.169 450.315 421.231 454.136 421.091 457.957
C 420.843 459.615 420.293 462.384 421.125 463.881
C 422.301 463.546 426.357 463.297 427.386 463.976
C 427.166 479.03 427.724 494.09 427.699 509.136
C 427.693 512.94 427.815 516.776 427.644 520.576
C 427.593 521.703 427.943 524.048 427.253 524.923
C 425.598 525.085 421.213 524.098 420.636 525.953
C 419.974 525.049 420.572 524.151 421.592 523.881
C 423.109 523.478 424.845 523.871 426.39 523.847
C 425.518 519.194 426.421 513.745 426.405 509.006
C 426.375 499.84 426.054 490.68 426.195 481.51
C 426.254 477.673 426.192 473.844 426.139 470.006
C 426.119 468.557 426.606 466.631 425.789 465.353
C 423.542 464.995 421.181 464.927 418.914 464.688
C 418.665 464.297 418.724 463.884 418.417 463.51
C 418.551 462.315 418.591 461.178 418.48 459.98
C 418.836 452.333 418.225 444.599 418.563 436.923 Z"
opacity="0.996" fill="rgb(206,140,111)" fill-rule="evenodd" />
<path d="
M 434.908 507.494
C 435.454 508.85 435.027 511.033 435.045 512.497
C 435.09 516.097 435.127 519.701 435.217 523.298
C 437.482 523.253 440.075 522.922 442.219 523.726
C 441.817 524.285 441.631 524.858 441.317 525.454
C 441.411 523.423 436.214 524.418 434.599 524.178
C 434.091 524.111 434.327 523.228 434.363 522.869
C 434.509 521.407 434.972 520.493 434.9 518.961
C 434.722 515.147 434.898 511.311 434.908 507.494 Z"
opacity="0.996" fill="rgb(148,185,214)" fill-rule="evenodd" />
<path d="
M 439.089 459.378
C 440.252 464.942 441.466 470.523 442.553 476.105
C 443.253 479.697 443.715 483.864 445.48 487.116
C 446.22 488.48 447.521 489.472 448.961 490.005
C 449.581 490.235 451.097 490.36 451.364 490.996
C 451.254 493.49 451.476 495.991 451.277 498.485
C 451.189 500.811 451.294 503.157 451.238 505.489
C 451.175 508.877 451.445 512.287 451.29 515.665
C 451.182 518.019 450.918 519.924 451.445 522.213
C 451.591 522.849 451.247 523.376 451.438 524.001
C 449.705 523.603 447.703 523.566 445.936 523.708
C 445.003 523.784 444.263 523.849 444.343 524.924
C 443.677 524.142 443.333 523.751 442.219 523.726
C 440.075 522.922 437.482 523.253 435.217 523.298
C 435.127 519.701 435.09 516.097 435.045 512.497
C 435.027 511.033 435.454 508.85 434.908 507.494
C 434.907 497.078 434.913 486.647 434.93 476.243
C 434.939 470.861 435.254 465.373 434.864 460.004
C 434.895 458.688 438.14 459.083 439.089 459.378 Z"
opacity="1" fill="rgb(27,143,196)" fill-rule="evenodd" />
<path d="
M 441.317 525.454
C 441.631 524.858 441.817 524.285 442.219 523.726
C 443.333 523.751 443.677 524.142 444.343 524.924
C 444.356 525.115 444.368 525.306 444.38 525.497
C 443.777 534.449 444.392 543.692 444.596 552.659
C 443.736 552.887 442.651 552.674 441.765 552.683
C 440.959 551.922 441.361 550.246 441.456 549.24
C 441.747 546.152 441.309 543.103 441.404 540.004
C 441.583 538.996 441.606 538.017 441.606 536.997
C 441.619 534.997 441.679 532.998 441.708 530.999
C 441.719 530.21 441.939 529.513 441.282 528.967
C 441.386 527.798 441.357 526.626 441.317 525.454 Z"
opacity="1" fill="rgb(73,151,181)" fill-rule="evenodd" />
<path d="
M 441.282 528.967
C 441.939 529.513 441.719 530.21 441.708 530.999
C 441.679 532.998 441.619 534.997 441.606 536.997
C 441.138 536.025 441.431 534.556 441.445 533.504
C 441.465 531.991 441.26 530.48 441.282 528.967 Z"
opacity="1" fill="rgb(155,197,216)" fill-rule="evenodd" />
<path d="
M 446 411.965
C 447.247 414.835 447.098 418.075 448.406 420.995
C 448.038 421.355 448.261 421.162 447.717 421.546
C 447.091 420.916 447.086 419.955 446.732 419.17
C 445.97 417.48 445.243 415.851 445.37 413.934
C 445.421 413.176 445.898 412.686 446 411.965 Z"
opacity="0.996" fill="rgb(171,210,227)" fill-rule="evenodd" />
<path d="
M 457.437 361.439
C 458.053 361.018 458.765 361.128 459.487 361.116
C 461.135 361.036 462.762 360.888 464.411 360.823
C 464.535 351.058 464.382 341.28 464.384 331.493
C 464.385 328.288 464.219 325.036 464.516 321.847
C 464.601 320.936 464.188 319.978 464.494 319.107
C 465.169 318.918 466.717 318.485 467.352 318.947
C 467.332 319.649 467.307 320.333 467.351 321.035
C 467.914 325.999 467.441 331.385 467.429 336.391
C 467.427 337.456 466.886 340.977 468 341.339
C 466.875 342.194 467.35 345.006 467.31 346.305
C 467.159 351.117 467.659 356.032 467.248 360.825
C 468.864 361.695 473.618 359.543 473.822 361.978
C 473.374 367.76 473.828 373.703 473.815 379.503
C 473.801 385.961 473.325 392.614 474.123 399.012
C 473.96 401.23 473.61 403.374 473.6 405.638
C 473.594 407.138 473.915 408.615 473.794 410.109
C 473.639 417.329 474.514 424.83 473.925 432.001
C 473.681 432.559 471.626 432.249 471.003 432.253
C 468.702 432.269 465.039 431.687 462.998 432.925
C 460.218 436.172 460.478 441.315 457.671 444.412
C 458.321 442.65 457.773 439.899 457.776 438.01
C 457.786 432.668 457.605 427.313 457.574 421.987
C 457.582 415.876 457.992 409.596 457.48 403.503
C 457.895 396.184 457.089 388.816 457.413 381.484
C 457.86 374.843 456.781 368.071 457.437 361.439 Z"
opacity="1" fill="rgb(28,139,192)" fill-rule="evenodd" />
<path d="
M 474.896 449.028
C 474.433 452.791 474.804 456.728 474.946 460.502
C 474.734 466.816 474.866 473.192 474.945 479.509
C 474.99 483.068 474.696 486.715 475.058 490.252
C 472.938 489.894 470.419 490.279 468.277 490.385
C 468.36 492.802 468.236 495.222 468.344 497.64
C 468.382 498.492 468.149 499.736 468.939 500.279
C 468.098 501.548 468.465 503.313 468.481 504.786
C 468.515 507.952 468.405 511.181 468.629 514.339
C 467.71 514.323 466.226 514.568 465.492 514.044
C 464.919 508.083 465.708 501.976 465.669 495.999
C 465.657 494.202 466.11 491.991 465.68 490.258
C 463.778 490.319 461.874 490.121 459.967 490.176
C 458.473 490.188 459.031 486.579 459.127 485.386
C 459.691 482.91 461.07 480.574 462.01 478.221
C 464.278 472.55 466.377 466.795 468.501 461.068
C 469.728 457.761 470.973 454.454 472.275 451.175
C 472.622 450.299 473.695 447.553 474.896 449.028 Z"
opacity="1" fill="rgb(30,141,190)" fill-rule="evenodd" />
<path d="
M 481.238 370.778
C 482.35 369.234 486.638 370.6 488.365 370.228
C 488.698 367.922 488.567 364.748 488.362 362.399
C 489.007 362.019 490.112 361.827 490.876 361.801
C 490.211 363.566 489.777 368.264 490.878 369.909
C 492.911 369.978 495.382 369.543 497.515 370.119
C 497.669 370.649 497.603 370.98 497.425 371.496
C 497.38 370.49 496.777 370.615 495.913 370.671
C 493.946 370.8 491.947 370.81 489.985 370.603
C 487.277 370.566 484.287 369.915 481.659 370.703
C 480.92 373.916 481.631 377.706 481.71 380.995
C 481.851 386.817 481.682 392.664 481.709 398.49
C 481.72 400.823 481.716 403.155 481.72 405.488
C 481.722 406.487 481.415 407.744 481.924 408.616
C 483.478 408.25 485.768 408.778 487.448 408.761
C 488.13 408.754 488.438 408.648 488.435 409.401
C 487.085 408.121 484.222 409.539 482.62 409.462
C 482.036 409.435 481.487 409.108 480.914 408.999
C 479.572 396.419 480.887 383.365 481.238 370.778 Z"
opacity="0.996" fill="rgb(221,140,112)" fill-rule="evenodd" />
<path d="
M 497.425 371.496
C 497.243 374.301 497.642 377.124 497.581 379.921
C 497.448 385.942 497.118 391.986 497.212 398.009
C 497.25 400.48 497.302 402.951 497.301 405.422
C 497.301 406.122 497.783 407.636 497.458 408.193
C 495.807 407.975 493.606 407.89 491.972 408.252
C 490.957 408.476 490.649 409.075 491.224 409.923
C 491.439 413.92 491.115 417.966 491.285 421.978
C 491.254 424.488 491.157 426.989 491.2 429.5
C 491.214 430.324 491.052 431.571 491.473 432.292
C 490.512 432.415 489.453 432.364 488.485 432.308
C 487.981 431.715 488.133 430.272 488.128 429.507
C 488.115 427.172 488.205 424.835 488.135 422.5
C 488.345 418.183 487.86 413.679 488.435 409.401
C 488.438 408.648 488.13 408.754 487.448 408.761
C 485.768 408.778 483.478 408.25 481.924 408.616
C 481.415 407.744 481.722 406.487 481.72 405.488
C 481.716 403.155 481.72 400.823 481.709 398.49
C 481.682 392.664 481.851 386.817 481.71 380.995
C 481.631 377.706 480.92 373.916 481.659 370.703
C 484.287 369.915 487.277 370.566 489.985 370.603
C 491.947 370.81 493.946 370.8 495.913 370.671
C 496.777 370.615 497.38 370.49 497.425 371.496 Z"
opacity="1" fill="rgb(239,94,53)" fill-rule="evenodd" />
<path d="
M 504.95 317.943
C 505.23 318.305 505.184 318.505 505.144 318.968
C 504.262 327.954 505.784 337.24 505.672 346.245
C 505.581 353.505 505.115 360.752 505.138 368.006
C 505.162 375.559 505.763 383.221 505.479 390.758
C 505.196 398.3 504.936 405.947 505.103 413.495
C 504.232 411.691 505.276 409.524 504.936 407.631
C 504.768 406.693 504.124 405.963 504.002 405
C 503.405 400.272 504.244 395.022 504.389 390.257
C 504.457 387.999 504.841 385.607 504.851 383.439
C 504.863 380.66 503.879 377.893 504.101 375.052
C 504.189 373.932 505.017 373.166 505.098 372.023
C 505.428 367.376 504.818 362.678 504.732 358.036
C 504.625 352.281 505.012 346.731 504.292 341.007
C 504.062 335.919 503.307 330.05 504.149 325.009
C 504.25 324.406 504.928 324.56 505.043 323.995
C 505.163 323.404 504.468 323.152 504.218 322.749
C 503.942 322.304 503.967 321.443 503.918 320.935
C 504.087 320.233 504.308 320.798 504.898 320.356
C 505.245 320.096 505.014 318.344 504.95 317.943 Z"
opacity="0.996" fill="rgb(207,163,142)" fill-rule="evenodd" />
<path d="
M 512.109 316.494
C 512.313 317.078 512.467 317.289 512.971 317.636
C 510.598 317.489 506.328 316.662 505.144 318.968
C 505.184 318.505 505.23 318.305 504.95 317.943
C 504.957 317.755 504.861 317.533 504.971 317.38
C 505.193 317.07 506.201 317.261 506.516 317.272
C 507.893 317.318 508.932 316.929 510.262 316.76
C 510.674 316.708 511.999 316.928 512.109 316.494 Z"
opacity="0.996" fill="rgb(217,109,72)" fill-rule="evenodd" />
<path d="
M 505.103 413.495
C 504.936 405.947 505.196 398.3 505.479 390.758
C 505.763 383.221 505.162 375.559 505.138 368.006
C 505.115 360.752 505.581 353.505 505.672 346.245
C 505.784 337.24 504.262 327.954 505.144 318.968
C 506.328 316.662 510.598 317.489 512.971 317.636
C 513.647 317.636 514.32 317.629 514.993 317.701
C 516.927 317.737 519.092 317.483 520.984 317.811
C 521.053 322.359 520.738 326.947 520.741 331.51
C 520.746 337.219 521.139 342.9 521.174 348.601
C 521.258 362.552 520.743 376.54 520.797 390.503
C 520.821 396.662 520.492 402.851 520.763 409.006
C 520.831 410.558 520.931 412.114 521.125 413.655
C 521.2 414.251 521.473 414.963 521.025 415.445
C 519.125 415.298 517.128 415.616 515.23 415.752
C 514.677 418.949 514.915 423.089 515.212 426.329
C 514.457 426.419 512.552 426.554 512.043 426.069
C 512.057 425.047 512.109 424.021 512.096 422.997
C 512.004 420.652 511.945 418.157 512.011 415.812
C 509.997 414.789 506.939 416.513 504.932 415.577
C 505.102 414.895 505.067 414.195 505.103 413.495 Z"
opacity="1" fill="rgb(242,89,48)" fill-rule="evenodd" />
<path d="
M 514.956 302.48
C 514.684 306.13 514.746 309.84 514.752 313.499
C 514.753 314.547 514.172 316.87 515.551 316.778
C 515.391 317.127 515.259 317.423 514.993 317.701
C 514.32 317.629 513.647 317.636 512.971 317.636
C 512.467 317.289 512.313 317.078 512.109 316.494
C 511.915 312.006 512.231 307.48 512.113 302.984
C 512.02 298.322 512.06 293.659 512.072 288.994
C 512.078 286.519 511.808 283.924 512.119 281.467
C 512.076 275.321 512.415 269.137 512.166 262.992
C 512.008 257.801 511.974 252.606 512.181 247.417
C 513.222 247.28 514.218 246.962 515.253 247.228
C 515.32 265.642 515.062 284.075 514.956 302.48 Z"
opacity="1" fill="rgb(215,121,90)" fill-rule="evenodd" />
<path d="
M 515.551 316.778
C 516.668 316.804 517.895 316.609 518.995 316.837
C 519.494 316.941 519.524 317.442 520.021 317.5
C 520.473 317.552 521.044 317.003 521.523 316.912
C 522.264 317.397 522.077 321.111 522.117 322.141
C 522.337 327.741 522.222 333.387 522.279 338.994
C 522.472 358.003 521.902 376.999 521.874 395.992
C 521.867 400.826 521.89 405.662 521.875 410.496
C 521.87 412.151 522.404 414.959 521.275 416.313
C 521.422 415.94 521.369 415.674 521.025 415.445
C 521.473 414.963 521.2 414.251 521.125 413.655
C 520.931 412.114 520.831 410.558 520.763 409.006
C 520.492 402.851 520.821 396.662 520.797 390.503
C 520.743 376.54 521.258 362.552 521.174 348.601
C 521.139 342.9 520.746 337.219 520.741 331.51
C 520.738 326.947 521.053 322.359 520.984 317.811
C 519.092 317.483 516.927 317.737 514.993 317.701
C 515.259 317.423 515.391 317.127 515.551 316.778 Z"
opacity="0.996" fill="rgb(209,156,135)" fill-rule="evenodd" />
<path d="
M 536.626 322.529
C 536.775 323.133 536.938 323.25 537.387 323.632
C 535.595 323.407 531.472 323.163 529.992 324.179
C 529.322 327.948 529.845 332.154 529.74 335.992
C 529.474 345.651 529.441 355.323 529.456 364.986
C 529.461 368.858 529.971 373.173 529.347 376.996
C 529.41 366.118 529.755 355.138 529.169 344.272
C 529.086 342.732 528.292 341.416 528.223 339.889
C 528.074 336.6 528.718 333.173 528.69 329.832
C 528.673 327.798 528.141 324.594 528.763 322.748
C 531.101 321.877 533.546 322.613 535.693 323.275
C 536.072 323.392 536.536 322.842 536.626 322.529 Z"
opacity="1" fill="rgb(155,183,204)" fill-rule="evenodd" />
<path d="
M 529.347 376.996
C 529.971 373.173 529.461 368.858 529.456 364.986
C 529.441 355.323 529.474 345.651 529.74 335.992
C 529.845 332.154 529.322 327.948 529.992 324.179
C 531.472 323.163 535.595 323.407 537.387 323.632
C 537.951 323.706 538.526 323.782 539.094 323.77
C 541.137 323.522 543.26 323.647 545.284 324.072
C 545.788 325.472 545.465 326.954 545.42 328.405
C 545.347 330.763 545.37 333.143 545.412 335.501
C 545.574 344.486 546.038 353.524 546.064 362.499
C 546.032 366.598 545.947 370.713 545.93 374.82
C 545.922 376.861 545.595 379.35 546.274 381.266
C 545.315 384.793 546.092 389.34 546.09 392.995
C 546.089 394.03 545.726 396.264 546.212 397.144
C 543.913 396.839 541.556 397.073 539.252 397.207
C 538.994 399.126 538.935 401.065 539.099 402.996
C 539.357 406.808 539.002 410.677 539.077 414.5
C 539.108 416.068 539.85 417.868 537.979 417.934
C 537.301 417.886 536.72 417.85 536.093 417.58
C 535.145 410.901 536.497 403.904 536.151 397.195
C 534.069 397.094 531.353 397.62 529.364 397.071
C 529.747 390.444 529.317 383.644 529.347 376.996 Z"
opacity="1" fill="rgb(28,138,190)" fill-rule="evenodd" />
<path d="
M 539.657 300.489
C 539.355 307.956 539.88 315.68 539.252 323.137
C 541.053 323.428 544.685 321.808 546.174 323.243
C 546.695 326.494 546.509 329.619 546.581 332.901
C 546.641 335.661 546.936 338.449 546.821 341.209
C 546.722 343.595 546.262 346.137 546.335 348.5
C 546.47 352.886 547.297 358.256 546.064 362.499
C 546.038 353.524 545.574 344.486 545.412 335.501
C 545.37 333.143 545.347 330.763 545.42 328.405
C 545.465 326.954 545.788 325.472 545.284 324.072
C 543.26 323.647 541.137 323.522 539.094 323.77
C 538.526 323.782 537.951 323.706 537.387 323.632
C 536.938 323.25 536.775 323.133 536.626 322.529
C 535.909 315.599 536.44 308.456 536.346 301.491
C 536.379 300.628 536.449 299.778 536.501 298.917
C 537.94 298.969 539.601 298.672 539.657 300.489 Z"
opacity="0.996" fill="rgb(129,180,203)" fill-rule="evenodd" />
<path d="
M 543.992 448.57
C 545.058 448.667 546.136 448.193 546.899 447.449
C 546.752 448.249 547.275 448.271 547.962 448.172
C 547.678 448.791 547.89 448.588 547.419 448.863
C 546.305 449.012 544.921 449.351 543.992 448.57 Z"
opacity="0.992" fill="rgb(251,223,221)" fill-rule="evenodd" />
<path d="
M 546.899 447.449
C 550.83 443.288 550.775 439.056 547.525 434.512
C 547.109 433.441 548.416 433.317 549.213 433.294
C 551.467 433.229 553.744 433.314 556.003 433.296
C 565.358 433.218 574.755 433.199 584.109 433.409
C 608.182 433.95 632.41 433.532 656.506 433.323
C 673.233 433.178 689.993 433.608 706.691 433.604
C 745.383 433.595 784.012 433.174 822.665 433.387
C 840.924 433.488 859.238 433.973 877.494 433.537
C 887.422 433.3 897.49 433.527 907.431 433.548
C 920.855 433.575 934.31 433.25 947.72 433.373
C 954.315 433.433 960.912 433.433 967.507 433.38
C 969.917 433.361 973.701 432.599 975.959 433.5
C 982.807 436.231 982.019 447.302 974.45 448.064
C 964.305 446.978 953.683 447.667 943.497 447.902
C 928.026 448.258 912.455 448.109 897.002 448.086
C 842.532 448.004 788.083 448.198 733.618 447.903
C 721.084 447.835 708.54 448.218 696.003 448.114
C 665.015 447.857 634.007 448.078 603.019 448.243
C 594.189 448.29 585.333 448.276 576.504 448.13
C 572.076 448.057 566.29 447.169 562.038 448.528
C 561.865 448.492 561.693 448.457 561.52 448.421
C 557.379 447.847 552.089 447.548 547.962 448.172
C 547.275 448.271 546.752 448.249 546.899 447.449 Z"
opacity="1" fill="rgb(234,110,48)" fill-rule="evenodd" />
<path d="
M 561.139 308.985
C 561.633 308.079 562.6 307.07 563.593 308.133
C 564.021 308.59 563.199 309.181 563.89 309.412
C 566.296 309.069 568.784 309.908 571.133 309.448
C 571.354 310.213 570.931 311.2 570.963 312.006
C 571.048 314.174 571.149 316.334 571.155 318.513
C 571.174 320.682 571.206 322.842 571.131 325.011
C 570.918 332.664 571.144 340.345 571.154 348
C 571.16 352.722 570.733 357.652 571.158 362.346
C 568.707 362.629 566.213 362.581 563.753 362.793
C 562.872 369.054 564.214 375.671 564.064 381.931
C 563.72 383.679 563.789 385.574 563.899 387.343
C 563.438 387.766 562.079 387.594 561.479 387.626
C 560.278 386.698 560.766 382.871 560.911 381.438
C 561.966 375.35 560.428 368.87 561.152 362.739
C 558.825 362.451 556.473 362.298 554.122 362.318
C 553.09 358.775 553.822 354.173 553.808 350.502
C 553.775 341.836 553.872 333.17 553.836 324.503
C 553.823 321.254 553.816 318.004 553.824 314.755
C 553.827 313.096 553.548 311.079 554.178 309.52
C 555.955 309.279 557.71 309.323 559.499 309.293
C 559.955 309.286 561.095 309.515 561.139 308.985 Z"
opacity="1" fill="rgb(29,134,187)" fill-rule="evenodd" />
<path d="
M 561.98 239.722
C 562.857 239.739 564.024 239.532 564.158 240.656
C 563.374 241.705 563.809 243.943 563.8 245.212
C 563.771 249.107 563.785 253.008 563.861 256.903
C 563.886 258.189 563.508 260.144 564.291 261.224
C 563.705 262.983 563.876 264.918 563.884 266.752
C 563.897 269.916 563.967 273.08 563.911 276.244
C 563.891 277.378 563.365 280.642 564.371 281.364
C 563.463 282.939 563.903 285.768 563.899 287.558
C 563.889 292.362 563.679 297.194 563.877 301.994
C 563.804 303.895 563.065 307.723 563.89 309.412
C 563.199 309.181 564.021 308.59 563.593 308.133
C 562.6 307.07 561.633 308.079 561.139 308.985
C 561.052 306.159 561.121 303.341 561.102 300.516
C 560.687 294.542 560.257 287.937 560.921 281.984
C 561.648 280.385 561.053 277.79 561.039 276.037
C 561.001 271.161 560.708 266.268 560.915 261.395
C 560.727 257.103 560.789 252.794 560.784 248.498
C 560.781 246.04 560.526 243.379 560.944 240.954
C 561.036 240.17 561.247 239.995 561.98 239.722 Z"
opacity="0.996" fill="rgb(81,159,193)" fill-rule="evenodd" />
<path d="
M 582.998 228.947
C 583.709 228.987 585.445 229.362 585.909 228.763
C 585.631 226.072 585.867 223.228 585.83 220.516
C 585.634 215.419 585.293 210.02 585.953 204.957
C 586.869 204.815 587.775 204.684 588.701 204.776
C 589.337 209.904 588.548 215.324 588.777 220.497
C 588.732 223.288 588.952 226.202 588.565 228.969
C 588.965 229.181 589.534 229.112 589.99 229.131
C 591.254 229.277 595.313 229.837 596.129 228.847
C 596.408 229.404 595.818 230.811 595.809 231.508
C 595.775 234.338 595.862 237.168 595.844 239.998
C 595.778 250.164 595.585 260.347 595.776 270.512
C 595.814 272.209 595.985 273.927 595.914 275.623
C 595.879 276.454 595.468 277.213 595.471 278.003
C 595.482 281.125 595.823 284.344 595.784 287.534
C 595.62 307.522 595.782 327.513 595.778 347.501
C 595.775 359.109 595.376 370.781 595.783 382.382
C 593.44 382.274 590.977 382.243 588.664 382.651
C 588.449 386.922 588.613 391.211 588.607 395.49
C 588.605 397.18 588.16 399.825 588.79 401.388
C 588.377 402.809 588.579 404.514 588.565 405.987
C 588.535 409.226 588.621 412.466 588.592 415.704
C 587.552 415.629 586.283 416.017 585.295 415.639
C 585.637 407.774 585.388 399.872 585.39 392.003
C 585.39 389.647 585.438 387.293 585.457 384.938
C 585.463 384.206 585.882 383.048 585.631 382.381
C 583.919 382.387 582.204 382.176 580.496 382.346
C 579.675 382.306 579.402 382.414 579.283 381.541
C 578.527 378.79 578.888 375.715 578.874 372.885
C 578.848 367.423 578.835 361.96 578.804 356.498
C 578.702 338.341 578.745 320.181 578.799 302.025
C 578.779 296.519 578.886 291.013 578.876 285.506
C 578.871 283.043 579.342 280.489 578.928 278.042
C 578.838 274.297 578.506 270.546 578.562 266.798
C 578.588 265.048 579.086 263.216 579.045 261.497
C 578.881 254.695 578.678 247.793 578.865 240.958
C 578.669 238.488 578.784 235.975 578.785 233.499
C 578.786 232.125 578.565 230.474 578.961 229.152
C 580.299 229.012 581.653 228.966 582.998 228.947 Z"
opacity="1" fill="rgb(27,134,188)" fill-rule="evenodd" />
<path d="
M 596.129 228.847
C 595.313 229.837 591.254 229.277 589.99 229.131
C 590.918 228.33 594.868 228.806 596.129 228.847 Z"
opacity="1" fill="rgb(160,213,223)" fill-rule="evenodd" />
<path d="
M 602.8 234.993
C 602.843 233.692 603.298 232.68 603.674 231.467
C 603.593 242.716 604.133 253.989 604.151 265.222
C 604.163 272.49 603.613 279.747 603.796 287.01
C 603.275 286.33 603.562 285.762 603.381 284.996
C 602.948 283.167 602.423 281.939 602.568 279.97
C 603.225 272.667 602.756 265.338 602.827 258.029
C 602.863 254.312 603.636 250.686 603.561 246.972
C 603.535 245.731 602.946 244.66 602.879 243.489
C 602.719 240.677 602.815 237.81 602.8 234.993 Z"
opacity="0.996" fill="rgb(213,171,155)" fill-rule="evenodd" />
<path d="
M 610.494 220.906
C 610.693 218.08 610.381 215.119 610.415 212.277
C 611.161 211.948 612.337 212.115 613.136 212.184
C 614.777 214.627 612.162 218.681 613.845 220.942
C 612.82 222.499 613.331 225.308 613.302 227.096
C 613.29 227.833 613.07 228.818 613.334 229.496
C 613.351 231.07 618.449 230.247 619.735 230.389
C 620.551 231.69 620.093 233.679 620.049 235.149
C 619.939 238.853 620.023 242.553 619.97 246.257
C 619.835 255.784 619.675 265.305 619.776 274.836
C 619.82 278.887 620.376 282.992 620.329 287.017
C 620.375 288.284 620.936 289.602 619.51 289.557
C 618.539 289.048 615.314 288.86 614.499 289.679
C 612.989 289.903 613.551 291.213 613.561 292.485
C 613.583 295.127 613.505 297.844 613.72 300.472
C 613.79 304.968 613.622 309.489 613.649 313.991
C 613.653 314.705 614.128 317.911 613.506 318.304
C 612.459 318.315 611.415 318.399 610.37 318.412
C 610.024 312.476 610.295 306.452 610.279 300.503
C 610.182 296.806 610.476 293.145 610.68 289.482
C 608.385 289.471 606.097 289.489 603.827 289.552
C 603.601 288.754 603.72 287.832 603.796 287.01
C 603.613 279.747 604.163 272.49 604.151 265.222
C 604.133 253.989 603.593 242.716 603.674 231.467
C 603.705 231.013 603.604 230.229 603.804 229.824
C 603.971 229.488 605.325 229.57 605.647 229.562
C 607.324 229.521 609.026 229.822 610.695 229.664
C 610.441 226.763 610.504 223.849 610.494 220.906 Z"
opacity="1" fill="rgb(239,90,50)" fill-rule="evenodd" />
<path d="
M 613.334 229.496
C 615.737 228.692 618.547 229.741 620.863 228.985
C 621.4 232.099 621.249 235.168 621.369 238.316
C 621.399 239.099 621.094 240.893 621.981 241.166
C 620.899 242.179 620.992 244.593 620.936 246.007
C 620.817 249.05 621.072 252.163 621.085 255.219
C 621.093 257.041 620.802 259.293 621.243 261.052
C 620.274 266.864 620.853 273.116 620.84 278.999
C 620.835 281.311 621.281 284.886 620.329 287.017
C 620.376 282.992 619.82 278.887 619.776 274.836
C 619.675 265.305 619.835 255.784 619.97 246.257
C 620.023 242.553 619.939 238.853 620.049 235.149
C 620.093 233.679 620.551 231.69 619.735 230.389
C 618.449 230.247 613.351 231.07 613.334 229.496 Z"
opacity="0.996" fill="rgb(212,167,142)" fill-rule="evenodd" />
<path d="
M 619.51 289.557
C 617.863 289.554 616.132 289.923 614.499 289.679
C 615.314 288.86 618.539 289.048 619.51 289.557 Z"
opacity="0.996" fill="rgb(210,186,162)" fill-rule="evenodd" />
<path d="
M 628.585 288.999
C 629.057 291.842 628.739 294.764 628.923 297.633
C 628.98 298.512 629.487 299.155 629.554 299.998
C 629.814 303.292 629.438 307.821 628.625 311.008
C 628.732 303.707 628.609 296.312 628.585 288.999 Z"
opacity="1" fill="rgb(38,122,181)" fill-rule="evenodd" />
<path d="
M 628.793 324.118
C 630.999 324.877 634.181 324.199 636.531 324.383
C 636.358 324.934 636.06 325.429 635.871 325.98
C 635.975 324.494 631.459 325.13 630.21 325.035
C 629.214 324.959 628.291 325.198 628.793 324.118 Z"
opacity="0.996" fill="rgb(171,193,210)" fill-rule="evenodd" />
<path d="
M 643.5 275.858
C 644.182 275.873 644.837 275.807 645.482 276.047
C 644.697 279.784 645.392 284.173 645.4 287.986
C 645.418 295.996 645.31 304.02 645.634 311.997
C 645.299 316.065 645.169 320.081 645.155 324.161
C 644.554 324.508 643.21 324.255 642.501 324.253
C 641.027 324.249 639.703 324.365 638.284 324.788
C 637.693 324.726 637.128 324.477 636.531 324.383
C 634.181 324.199 630.999 324.877 628.793 324.118
C 628.551 323.086 628.765 322.051 628.68 321.002
C 628.6 317.671 628.61 314.341 628.625 311.008
C 629.438 307.821 629.814 303.292 629.554 299.998
C 629.487 299.155 628.98 298.512 628.923 297.633
C 628.739 294.764 629.057 291.842 628.585 288.999
C 628.57 285.998 628.616 282.999 628.635 279.999
C 628.642 278.777 628.361 277.053 628.85 275.935
C 631.014 275.746 633.22 275.824 635.392 275.867
C 635.522 272.27 635.541 268.373 635.278 264.788
C 636.175 264.775 637.087 264.633 637.916 265.034
C 638.029 268.644 637.825 272.268 638.054 275.871
C 639.852 275.791 641.697 275.843 643.5 275.858 Z"
opacity="1" fill="rgb(24,138,193)" fill-rule="evenodd" />
<path d="
M 635.756 341.492
C 636.049 336.345 635.455 331.11 635.871 325.98
C 636.06 325.429 636.358 324.934 636.531 324.383
C 637.128 324.477 637.693 324.726 638.284 324.788
C 638.319 325.385 638.328 326.012 638.709 326.49
C 638.684 327.171 638.687 326.837 638.698 327.493
C 638.647 329.327 638.709 331.168 638.702 333.003
C 638.686 336.336 638.805 339.669 638.755 343.001
C 638.686 349.36 638.215 356.146 639.006 362.453
C 638.71 364.438 638.864 366.491 639.018 368.486
C 639.038 369.845 636.736 369.523 635.721 369.187
C 635.684 366.603 635.886 363.963 635.628 361.395
C 635.677 354.77 635.867 348.118 635.756 341.492 Z"
opacity="1" fill="rgb(64,149,183)" fill-rule="evenodd" />
<path d="
M 660.023 311.367
C 657.988 312.378 655.562 311.763 653.429 312.372
C 653.134 314.386 653.356 316.459 653.318 318.497
C 653.214 324.163 653.417 329.831 653.295 335.496
C 653.245 337.817 653.98 341.941 652.884 344.011
C 652.901 342.997 652.64 342.34 652.277 341.404
C 651.227 337.847 651.915 333.724 652.074 330.071
C 652.341 323.896 651.99 317.915 652.91 311.894
C 654.291 310.146 658.268 311.032 660.023 311.367 Z"
opacity="0.996" fill="rgb(196,161,157)" fill-rule="evenodd" />
<path d="
M 652.884 344.011
C 653.98 341.941 653.245 337.817 653.295 335.496
C 653.417 329.831 653.214 324.163 653.318 318.497
C 653.356 316.459 653.134 314.386 653.429 312.372
C 655.562 311.763 657.988 312.378 660.023 311.367
C 660.558 308.71 659.181 305.044 660.386 302.605
C 661.551 302.377 662.136 302.504 663.147 302.924
C 663.264 303.624 663.236 303.266 663.226 303.998
C 662.281 304.217 662.42 305.299 662.388 306.128
C 662.32 307.872 662.431 309.639 662.414 311.386
C 662.789 311.854 663.554 311.793 664.137 311.818
C 665.765 311.889 667.383 311.882 669.005 311.992
C 669.408 316.488 668.71 321.467 668.501 326.007
C 668.215 332.209 668.906 338.374 668.865 344.567
C 668.711 346.045 664.866 345.24 663.938 345.258
C 663.712 345.287 662.932 345.374 662.779 345.452
C 662.281 345.705 662.372 346.984 662.359 347.453
C 662.301 349.487 662.274 351.521 662.278 353.556
C 662.286 356.893 662.525 360.189 662.658 363.501
C 662.899 369.483 662.422 375.482 662.754 381.464
C 662.54 387.969 662.184 394.896 662.75 401.378
C 662.205 403.422 662.602 405.882 662.585 407.991
C 662.552 412.115 662.232 416.431 662.827 420.52
C 662.266 420.549 661.933 420.328 661.474 420.743
C 660.8 420.722 660.322 420.846 659.776 420.415
C 659.278 417.158 659.582 413.605 659.562 410.311
C 659.544 407.231 659.138 404.024 659.573 400.97
C 659.438 394.412 659.161 387.516 659.653 380.976
C 659.269 377.128 659.581 373.056 659.6 369.184
C 659.612 366.692 659.253 363.876 659.672 361.432
C 658.918 356.228 660.657 350.481 659.695 345.309
C 658.018 345.36 656.33 345.335 654.651 345.34
C 654.462 345.341 653.052 345.53 652.945 345.443
C 652.795 345.321 652.896 344.226 652.884 344.011 Z"
opacity="1" fill="rgb(237,93,53)" fill-rule="evenodd" />
<path d="
M 663.226 303.998
C 664.622 305.495 662.862 308.544 663.679 310.328
C 665.518 310.813 668.289 309.489 669.812 311.069
C 670.432 313.511 670.161 316.079 670.115 318.576
C 670.028 323.336 669.787 328.078 669.805 332.846
C 669.811 334.613 669.379 339.249 670.879 340.401
C 669.77 341.66 670.232 343.939 669.417 345.425
C 667.713 345.719 666.053 345.522 664.378 345.99
C 664.257 345.734 664.084 345.501 663.938 345.258
C 664.866 345.24 668.711 346.045 668.865 344.567
C 668.906 338.374 668.215 332.209 668.501 326.007
C 668.71 321.467 669.408 316.488 669.005 311.992
C 667.383 311.882 665.765 311.889 664.137 311.818
C 663.554 311.793 662.789 311.854 662.414 311.386
C 662.431 309.639 662.32 307.872 662.388 306.128
C 662.42 305.299 662.281 304.217 663.226 303.998 Z"
opacity="0.996" fill="rgb(220,194,176)" fill-rule="evenodd" />
<path d="
M 677.33 306.008
C 678.061 308.483 677.531 311.904 677.523 314.482
C 677.507 319.48 677.723 324.495 677.776 329.499
C 677.796 331.323 677.848 333.161 677.779 334.981
C 677.745 335.87 677.477 336.823 678.429 337.051
C 677.849 337.93 678.055 337.5 677.429 337.177
C 675.759 333.576 676.92 328.191 677.386 324.47
C 677.583 322.895 676.612 321.53 676.654 319.94
C 676.685 318.783 677.374 317.866 677.422 316.851
C 677.59 313.249 677.429 309.611 677.33 306.008 Z"
opacity="0.996" fill="rgb(214,179,156)" fill-rule="evenodd" />
<path d="
M 687.653 280.988
C 687.655 282.018 687.567 283.033 687.509 284.061
C 687.544 284.792 688.539 284.616 689.222 284.664
C 690.703 284.768 692.187 284.611 693.671 284.682
C 694.131 285.722 693.85 287.355 693.819 288.49
C 693.742 291.321 693.497 294.181 693.505 297.008
C 693.524 303.998 693.769 311.009 693.694 318.01
C 693.626 324.305 693.376 330.67 694 336.935
C 692.996 336.744 691.979 336.849 690.969 336.932
C 689.82 336.863 688.475 336.904 687.392 337.303
C 687.331 338.2 687.328 339.091 687.309 339.989
C 687.288 341.526 686.742 345.364 687.735 346.554
C 687.724 348.038 687.687 349.52 687.689 351.004
C 687.699 354.497 687.688 357.99 687.804 361.481
C 687.794 363.128 687.389 365.156 687.802 366.755
C 686.729 366.834 685.648 366.732 684.573 366.746
C 683.643 363.918 684.499 360.105 684.581 357.155
C 684.761 350.608 685.264 343.621 684.623 337.11
C 682.754 336.514 680.328 336.667 678.429 337.051
C 677.477 336.823 677.745 335.87 677.779 334.981
C 677.848 333.161 677.796 331.323 677.776 329.499
C 677.723 324.495 677.507 319.48 677.523 314.482
C 677.531 311.904 678.061 308.483 677.33 306.008
C 677.315 305.359 677.307 304.711 677.324 304.062
C 677.99 302.232 677.337 300.251 677.302 298.387
C 677.221 294.144 676.751 289.079 677.655 284.933
C 679.048 283.52 682.751 284.677 684.668 284.264
C 684.778 280.437 684.314 276.578 684.317 272.745
C 684.317 271.306 684.048 269.45 684.477 268.074
C 685.432 267.937 686.576 267.682 687.499 268.067
C 688.001 272.303 687.708 276.728 687.653 280.988 Z"
opacity="1" fill="rgb(241,90,52)" fill-rule="evenodd" />
<path d="
M 701.882 313.495
C 702.125 312.81 702.066 311.904 702.148 311.181
C 704.206 310.743 706.394 310.689 708.493 310.571
C 708.511 310.571 709.055 310.643 709.199 310.503
C 709.228 310.475 708.872 308.852 708.893 308.608
C 709.065 306.569 709.003 304.522 708.935 302.484
C 709.028 301.771 711.19 301.384 711.743 301.978
C 711.2 303.982 711.714 306.433 711.704 308.507
C 711.703 308.869 711.48 310.283 711.685 310.539
C 711.745 310.613 712.92 310.687 713.014 310.693
C 714.331 311.034 715.682 310.935 717.029 310.956
C 717.447 310.963 718.28 310.834 718.532 311.297
C 718.781 311.757 718.429 312.065 718.719 312.483
C 718.779 314.469 718.771 316.489 718.727 318.478
C 718.502 324.472 718.859 330.507 718.582 336.489
C 718.571 337.916 718.431 339.341 718.349 340.765
C 716.217 340.873 713.824 340.626 711.771 341.293
C 711.381 340.523 710.094 340.688 709.364 340.824
C 708.774 341.037 708.117 341.101 707.495 341.158
C 705.819 341.118 704.151 341.197 702.475 341.165
C 701.269 339.263 701.935 335.507 701.902 333.138
C 701.809 326.599 701.717 320.031 701.882 313.495 Z"
opacity="1" fill="rgb(30,141,194)" fill-rule="evenodd" />
<path d="
M 709.364 340.824
C 710.094 340.688 711.381 340.523 711.771 341.293
C 712.1 348.171 711.793 355.111 711.911 361.997
C 711.696 368.46 711.612 375.018 711.832 381.481
C 712.001 388.131 711.828 394.838 711.788 401.491
C 711.849 403.678 712.397 407.525 711.481 409.523
C 710.673 409.598 709.606 409.969 708.836 409.625
C 708.623 406.935 708.607 404.151 708.6 401.461
C 708.67 394.668 708.225 387.714 708.599 380.954
C 708.758 374.646 708.897 368.3 708.656 361.989
C 708.78 357.378 708.767 352.765 708.734 348.148
C 708.717 345.793 708.311 342.982 709.364 340.824 Z"
opacity="0.996" fill="rgb(73,155,186)" fill-rule="evenodd" />
<path d="
M 719.088 310.351
C 718.866 311.081 718.709 311.716 718.719 312.483
C 718.429 312.065 718.781 311.757 718.532 311.297
C 718.28 310.834 717.447 310.963 717.029 310.956
C 715.682 310.935 714.331 311.034 713.014 310.693
C 713.841 309.791 715.098 310.715 715.997 310.838
C 717.09 310.988 718.049 310.558 719.088 310.351 Z"
opacity="0.996" fill="rgb(91,174,211)" fill-rule="evenodd" />
<path d="
M 733.925 300.51
C 734.551 294.276 733.693 287.737 733.902 281.457
C 734.227 279.508 733.929 277.458 733.913 275.491
C 733.875 270.841 733.659 265.971 734.1 261.349
C 734.399 260.333 734.134 258.94 734.115 257.883
C 734.074 255.587 734.111 253.286 734.026 250.991
C 733.977 249.666 733.597 247.371 734.358 246.308
C 735.279 246.271 736.155 246.222 737.07 246.376
C 737.989 252.717 737.004 259.602 736.977 266.001
C 736.924 278.878 737.505 291.848 736.739 304.712
C 738.922 305.108 741.39 304.29 743.523 304.94
C 743.155 307.108 743.543 309.323 743.581 311.499
C 743.662 316.182 743.484 320.86 743.352 325.539
C 743.294 327.588 743.652 329.945 743.285 331.938
C 743.268 332.033 742.549 332.063 742.496 332.068
C 740.655 331.914 738.135 331.772 736.38 332.32
C 736.66 341.821 735.841 351.53 736.626 360.996
C 736.734 361.527 733.881 361.315 733.408 361.062
C 733.814 354.727 733.127 348.322 733.628 341.995
C 733.679 341.17 733.709 340.353 733.705 339.527
C 733.68 337.68 733.586 335.841 733.609 333.993
C 733.616 333.445 733.847 332.441 733.516 332.035
C 731.264 331.554 728.901 332.018 726.628 331.752
C 726.434 326.683 726.635 321.581 726.631 316.506
C 726.628 312.817 726.357 308.944 726.785 305.281
C 728.778 304.309 731.684 304.947 733.865 304.761
C 734.349 303.842 733.911 301.59 733.925 300.51 Z"
opacity="1" fill="rgb(40,143,193)" fill-rule="evenodd" />
<path d="
M 752.469 306.44
C 754.253 307.552 757.203 306.326 759.208 306.72
C 759.702 306.603 758.741 306.341 758.655 305.524
C 758.583 304.361 758.622 303.186 758.588 302.019
C 758.41 295.201 758.233 288.34 758.325 281.494
C 758.895 276.73 758.192 271.63 758.351 266.813
C 759.315 266.853 760.45 267.024 761.397 266.901
C 761.065 271.858 761.838 277.061 761.522 281.907
C 760.866 286.543 761.376 291.544 761.383 296.225
C 761.384 297.492 760.834 300.072 761.896 300.94
C 761.058 301.812 760.728 306.538 761.956 306.919
C 763.733 307.762 765.921 306.543 767.711 307.156
C 767.626 310.836 767.994 314.45 768.334 318.086
C 768.425 319.052 767.899 319.974 767.992 320.976
C 768.384 325.175 768.335 329.271 768.273 333.518
C 768.24 336 768.241 338.483 768.206 340.965
C 768.063 342.301 767.258 341.707 766.042 341.752
C 764.082 341.826 761.311 341.196 761.4 343.986
C 761.369 344.986 761.458 345.986 761.523 346.984
C 761.54 348.826 761.533 350.66 761.566 352.498
C 761.582 355.833 761.457 359.166 761.458 362.491
C 761.534 366.485 761.156 370.775 761.636 374.728
C 760.624 374.582 759.427 374.734 758.417 374.859
C 758.058 373.472 758.288 371.651 758.285 370.214
C 758.281 367.299 758.239 364.374 758.323 361.461
C 759.032 355.365 757.772 349.015 758.522 342.897
C 757.496 341.414 753.289 342.7 751.644 342.209
C 751.731 333.069 751.629 323.881 751.576 314.743
C 751.564 312.704 751.44 310.627 751.552 308.592
C 751.609 307.542 751.226 306.613 752.469 306.44 Z"
opacity="1" fill="rgb(238,97,56)" fill-rule="evenodd" />
<path d="
M 752.469 306.44
C 753.984 306.358 758.246 307.15 758.655 305.524
C 758.741 306.341 759.702 306.603 759.208 306.72
C 757.203 306.326 754.253 307.552 752.469 306.44 Z"
opacity="0.996" fill="rgb(224,155,139)" fill-rule="evenodd" />
<path d="
M 768.206 340.965
C 768.431 341.373 768.483 341.796 768.38 342.252
C 767.162 343.378 764.965 343.024 763.475 342.993
C 762.641 342.976 761.674 343.098 761.4 343.986
C 761.311 341.196 764.082 341.826 766.042 341.752
C 767.258 341.707 768.063 342.301 768.206 340.965 Z"
opacity="0.996" fill="rgb(212,198,179)" fill-rule="evenodd" />
<path d="
M 769.48 320.818
C 768.295 321.865 768.527 323.235 768.537 324.701
C 768.554 327.421 769.016 330.891 768.273 333.518
C 768.335 329.271 768.384 325.175 767.992 320.976
C 767.899 319.974 768.425 319.052 768.334 318.086
C 767.994 314.45 767.626 310.836 767.711 307.156
C 765.921 306.543 763.733 307.762 761.956 306.919
C 762.91 305.524 767.018 305.742 768.457 306.387
C 769.627 309.244 768.562 313.8 768.563 316.835
C 768.564 318.17 768.227 319.985 769.48 320.818 Z"
opacity="0.996" fill="rgb(232,198,184)" fill-rule="evenodd" />
<path d="
M 786.289 321.489
C 786.279 323.822 786.247 326.161 786.31 328.493
C 786.331 329.292 786.068 330.695 786.492 331.343
C 788.634 331.198 790.971 331.268 793.098 331.578
C 793.415 333.355 793.286 335.163 793.608 336.941
C 793.031 339.056 793.247 341.339 793.288 343.509
C 793.354 347.001 793.382 350.504 793.31 353.996
C 793.266 356.328 793.323 358.661 793.32 360.993
C 793.335 361.665 793.347 362.334 793.339 363.006
C 793.253 367.115 793.067 371.39 793.564 375.468
C 793.207 377.41 793.806 379.187 793.708 381.023
C 793.485 385.23 793.197 389.703 793.417 394.003
C 793.101 394.334 791.947 394.172 791.493 394.188
C 789.805 394.249 788.111 394.284 786.424 394.318
C 786.505 396.058 785.74 399.379 786.772 400.864
C 786.2 402.662 786.453 404.734 786.459 406.602
C 786.469 409.875 786.518 413.153 786.515 416.42
C 786.514 417.68 785.862 420.344 786.882 421.261
C 786.08 422.454 786.398 424.074 786.221 425.466
C 785.389 425.742 784.523 425.567 783.695 425.348
C 783.083 423.988 783.495 422.468 783.566 421.035
C 783.646 419.399 783.491 417.731 783.486 416.092
C 783.469 410.978 783.403 405.866 783.441 400.755
C 783.457 398.622 783.164 396.498 783.404 394.365
C 781.547 393.62 778.461 393.85 776.481 393.981
C 775.878 389.936 776.206 385.598 776.251 381.516
C 776.833 374.953 776.144 368.083 776.212 361.484
C 775.452 351.52 776.456 341.337 776.323 331.348
C 778.773 331.415 781.327 331.428 783.771 331.233
C 783.813 327.736 783.962 324.192 784.152 320.699
C 785.116 319.74 786.309 320.156 786.289 321.489 Z"
opacity="1" fill="rgb(97,158,197)" fill-rule="evenodd" />
<path d="
M 801.345 325.3
C 803.222 324.33 806.417 325.249 808.527 324.939
C 809.102 324.284 808.679 321.84 808.634 320.988
C 808.44 314.349 808.087 307.442 808.457 300.818
C 807.911 298.96 808.399 296.429 808.4 294.489
C 808.401 290.138 808.253 285.761 808.356 281.414
C 808.19 274.836 808.008 268.04 808.413 261.474
C 809.158 260.526 810.733 260.243 811.846 260.844
C 811.083 265.519 811.616 270.76 811.693 275.494
C 811.722 277.234 811.244 279.757 811.78 281.392
C 811.5 286.562 811.679 291.804 811.621 296.983
C 811.605 298.439 811.917 300.062 811.746 301.458
C 811.333 306.226 811.662 311.139 811.627 315.925
C 811.616 317.457 811.006 320.062 811.732 321.42
C 810.978 322.089 811.336 324.067 811.463 324.982
C 813.722 325.091 815.936 325.087 818.204 325.013
C 818.698 329.618 818.296 334.367 818.327 338.994
C 818.356 343.422 818.803 348.086 818.328 352.493
C 818.111 352.839 816.972 352.734 816.573 352.768
C 814.852 352.914 813.15 352.871 811.44 353.147
C 810.281 355.119 810.89 359.282 811.264 361.491
C 811.458 362.007 811.461 362.445 811.464 362.994
C 811.295 365.407 810.83 368.414 811.326 370.788
C 810.372 370.9 809.078 370.969 808.159 370.697
C 807.991 367.689 807.809 364.421 808.235 361.437
C 808.227 358.736 808.579 355.814 808.226 353.141
C 806.118 353.205 804.08 352.85 801.982 353.144
C 801.149 352.228 801.333 350.655 801.311 349.35
C 801.262 346.402 801.363 343.454 801.323 340.505
C 801.296 335.455 800.849 330.338 801.345 325.3 Z"
opacity="1" fill="rgb(167,202,224)" fill-rule="evenodd" />
<path d="
M 825.468 341.457
C 825.686 341.013 825.538 341.26 825.961 340.748
C 829.909 340.502 833.926 340.747 837.883 340.74
C 839.009 340.739 841.278 340.331 841.907 341.433
C 841.558 344.197 841.848 347.199 841.844 349.992
C 841.839 353.625 841.563 357.414 841.935 361.027
C 841.925 361.811 839.102 361.392 838.497 361.396
C 834.496 361.424 830.493 361.31 826.493 361.355
C 824.517 361.271 825.259 357.911 825.267 356.492
C 825.296 351.473 825.494 346.46 825.468 341.457 Z"
opacity="1" fill="rgb(243,211,203)" fill-rule="evenodd" />

</svg>